<?xml version="1.0" encoding="UTF-8"?>
<svg version="1.1" xmlns="http://www.w3.org/2000/svg" width="612" height="408">
<path d="M0 0 C1 1 1 1 1.11352539 2.85766602 C1.10828857 3.64842529 1.10305176 4.43918457 1.09765625 5.25390625 C1.09443359 6.10791016 1.09121094 6.96191406 1.08789062 7.84179688 C1.07951172 8.73962891 1.07113281 9.63746094 1.0625 10.5625 C1.05798828 11.46419922 1.05347656 12.36589844 1.04882812 13.29492188 C1.03700225 15.53001314 1.0205222 17.76497437 1 20 C1.63808594 19.98839844 2.27617187 19.97679687 2.93359375 19.96484375 C3.75988281 19.95582031 4.58617187 19.94679687 5.4375 19.9375 C6.26121094 19.92589844 7.08492188 19.91429687 7.93359375 19.90234375 C10 20 10 20 11 21 C11.125 24.5 11.125 24.5 11 28 C10 29 10 29 7.93359375 29.09765625 C7.10988281 29.08605469 6.28617187 29.07445312 5.4375 29.0625 C4.61121094 29.05347656 3.78492188 29.04445312 2.93359375 29.03515625 C1.97646484 29.01775391 1.97646484 29.01775391 1 29 C1.09357699 33.50272703 1.19967925 38.004919 1.31738281 42.50708008 C1.35565798 44.03857339 1.39051349 45.57015615 1.421875 47.10180664 C1.46755807 49.3038733 1.52554537 51.50532496 1.5859375 53.70703125 C1.59748871 54.39150833 1.60903992 55.07598541 1.62094116 55.78120422 C1.73273744 59.38460837 1.94394553 60.9159183 4 64 C7.04195427 64.33340471 7.04195427 64.33340471 10 64 C11.84975482 62.15024518 11.44171335 58.92972373 11.6875 56.4375 C12.72458611 48.78021757 15.044305 44.23436238 20.9921875 39.37109375 C25.71650459 36.14495504 30.59773314 35.59334923 36.08984375 36.53515625 C42.48019027 38.09027125 46.4346338 41.64639716 50 47 C51.8161935 51.67021185 52.32002835 56.22041814 52.65625 61.1796875 C52.82640625 62.08074219 52.82640625 62.08074219 53 63 C55.66178221 64.3308911 57.68739396 64.11268993 60.6640625 64.09765625 C61.78554688 64.09443359 62.90703125 64.09121094 64.0625 64.08789062 C65.8259375 64.07532227 65.8259375 64.07532227 67.625 64.0625 C68.80835938 64.05798828 69.99171875 64.05347656 71.2109375 64.04882812 C74.14067507 64.03701467 77.07031272 64.02054258 80 64 C80 63.01 80 62.02 80 61 C79.11957031 60.91363281 78.23914063 60.82726562 77.33203125 60.73828125 C66.66276996 59.44754931 66.66276996 59.44754931 63.75 56.5 C61.46607076 53.23724394 60.84513475 51.55422413 60.8125 47.625 C60.79832031 46.85414063 60.78414063 46.08328125 60.76953125 45.2890625 C61.04500858 42.55296562 61.37171552 41.23944879 63 39 C69.2314374 34.05633538 75.24380889 34.52431706 82.9375 34.75 C86.918125 34.8325 90.89875 34.915 95 35 C95 23.78 95 12.56 95 1 C100.96385542 -0.19277108 100.96385542 -0.19277108 104 1 C105.36017118 3.72034236 105.12966117 5.88362398 105.1328125 8.92578125 C105.13410156 10.11494141 105.13539063 11.30410156 105.13671875 12.52929688 C105.13285156 13.77775391 105.12898438 15.02621094 105.125 16.3125 C105.12886719 17.54935547 105.13273437 18.78621094 105.13671875 20.06054688 C105.13542969 21.25357422 105.13414062 22.44660156 105.1328125 23.67578125 C105.13168457 24.76802002 105.13055664 25.86025879 105.12939453 26.9855957 C105.0098121 29.77141506 104.63312092 32.28990293 104 35 C105.07378906 34.95359375 106.14757812 34.9071875 107.25390625 34.859375 C121.67481809 34.41786673 121.67481809 34.41786673 127 39 C129.86076088 42.32217393 130.6388029 45.45608682 130.49609375 49.86328125 C129.55584717 53.9130047 126.94193326 57.13428263 124 60 C123.34 60 122.68 60 122 60 C121.67 60.66 121.34 61.32 121 62 C121.89332031 62.38478516 121.89332031 62.38478516 122.8046875 62.77734375 C125.19696371 64.10969687 126.42728199 65.43368605 128.125 67.5625 C130.20903634 70.21025666 130.20903634 70.21025666 133 72 C133 72.99 133 73.98 133 75 C128.38610767 75.9656984 124.60037481 76.11837508 120 75 C114.56413691 71.24625307 110.22410276 66.03183456 106 61 C105.93941406 61.92683594 105.87882812 62.85367188 105.81640625 63.80859375 C105.69072266 65.60490234 105.69072266 65.60490234 105.5625 67.4375 C105.44068359 69.22994141 105.44068359 69.22994141 105.31640625 71.05859375 C105 74 105 74 104 75 C102.1875 75.1328125 102.1875 75.1328125 100 75.125 C99.278125 75.12757813 98.55625 75.13015625 97.8125 75.1328125 C96 75 96 75 95 74 C94.91224395 71.85441173 94.89304781 69.70595579 94.90234375 67.55859375 C94.90717773 65.60083008 94.90717773 65.60083008 94.91210938 63.60351562 C94.92046599 62.2148431 94.92893095 60.82617123 94.9375 59.4375 C94.94251334 58.04492344 94.94707653 56.65234519 94.95117188 55.25976562 C94.96300566 51.8398013 94.9794912 48.41992156 95 45 C94.14059814 45.0714624 93.28119629 45.1429248 92.39575195 45.21655273 C86.65129579 45.67932641 80.95514572 46.13198971 75.1875 46.0625 C74.19105469 46.05347656 73.19460938 46.04445312 72.16796875 46.03515625 C71.09482422 46.01775391 71.09482422 46.01775391 70 46 C70.33 46.99 70.66 47.98 71 49 C71.80824219 49.10957031 72.61648438 49.21914062 73.44921875 49.33203125 C75.05216797 49.56986328 75.05216797 49.56986328 76.6875 49.8125 C77.74324219 49.96332031 78.79898438 50.11414063 79.88671875 50.26953125 C84.14258494 51.26808455 86.98544293 52.85016866 89.875 56.125 C91.50181526 60.28241677 91.14069232 63.72434377 90 68 C87.56423401 72.0886072 85.45268704 73.54855623 81 75 C76.71641438 75.41379305 72.42660268 75.32438288 68.125 75.3125 C66.38669922 75.33666992 66.38669922 75.33666992 64.61328125 75.36132812 C56.58545307 75.36591546 51.71896883 74.47931255 45 70 C45 70.66 45 71.32 45 72 C38.41462926 75.2033223 33.21930865 76.99153342 26 75 C23.97084231 74.06057514 21.96124688 73.07401615 20 72 C16.86490423 71.7763932 16.86490423 71.7763932 13.875 73.5625 C9.45421172 75.52521784 5.61771504 75.22802622 1 74 C-3.99767975 71.50116012 -5.93762145 69.13308063 -8 64 C-8.24748197 61.17036749 -8.35238888 58.57693528 -8.29296875 55.7578125 C-8.28872391 54.98944061 -8.28447906 54.22106873 -8.28010559 53.42941284 C-8.26341826 50.99424015 -8.22578641 48.5599192 -8.1875 46.125 C-8.17244023 44.46615785 -8.15875409 42.80730263 -8.14648438 41.1484375 C-8.11354759 37.0986341 -8.06183594 33.04946106 -8 29 C-9.299375 29.020625 -10.59875 29.04125 -11.9375 29.0625 C-13.29165633 29.08399454 -14.64756083 29.07148199 -16 29 C-17 28 -17 28 -17.125 24.5 C-17 21 -17 21 -16 20 C-13.36 20 -10.72 20 -8 20 C-8 13.73 -8 7.46 -8 1 C-5.26752652 -0.36623674 -3.01801098 -0.128426 0 0 Z M105 45 C104.77848451 46.79008467 104.57317787 48.58218162 104.375 50.375 C104.25898438 51.37273437 104.14296875 52.37046875 104.0234375 53.3984375 C104.01570313 54.25695312 104.00796875 55.11546875 104 56 C104.66 56.66 105.32 57.32 106 58 C106.474375 56.865625 106.94875 55.73125 107.4375 54.5625 C108.84005264 52.03280505 109.46212744 51.16293558 112.26953125 50.3125 C114.53014308 50.08465881 116.72893152 49.96603103 119 50 C119.33 48.68 119.66 47.36 120 46 C117.11584117 44.55792059 114.58278472 44.90605113 111.375 44.9375 C109.59222656 44.95103516 109.59222656 44.95103516 107.7734375 44.96484375 C106.40058594 44.98224609 106.40058594 44.98224609 105 45 Z M23 50 C21.80231735 53.77427624 21.75035603 56.97872923 22.6875 60.8125 C24.27236229 63.45393715 25.22588713 64.61294357 28 66 C32.07206795 66.51991885 32.07206795 66.51991885 36 66 C38.69105198 63.82425584 40.45532928 62.08934144 42 59 C42.12243863 54.46977058 41.81830145 51.01667755 38.9375 47.4375 C33.0479219 44.55536604 27.38745029 44.68187843 23 50 Z " fill="#1F429A" transform="translate(286,148)"/>
<path d="M0 0 C0.91007812 0.00902344 1.82015625 0.01804688 2.7578125 0.02734375 C3.80582031 0.04474609 3.80582031 0.04474609 4.875 0.0625 C6 2.3125 6 2.3125 6.875 5.0625 C5.9296875 7.234375 5.9296875 7.234375 4.875 9.0625 C6.15375 9.10375 7.4325 9.145 8.75 9.1875 C15.36075596 9.88943447 21.20783866 13.39533866 25.875 18.0625 C26.720625 17.2375 27.56625 16.4125 28.4375 15.5625 C31.16377344 13.26464096 31.89169104 13.06085826 35.6875 12.6875 C38.875 13.0625 38.875 13.0625 39.875 14.0625 C40.68779621 20.79709716 40.68779621 20.79709716 38.53515625 24.1484375 C37.04404961 25.86759574 35.52251489 27.4934382 33.875 29.0625 C34.349375 29.76375 34.82375 30.465 35.3125 31.1875 C39.41943031 38.74425177 38.950635 50.10822551 37.1875 58.375 C33.12586746 69.78625334 26.763592 77.6258184 15.875 83.0625 C5.89062565 87.63878447 -6.22162479 87.99943047 -16.5625 84.1875 C-27.59960678 78.7225248 -34.73989186 70.47717079 -39.125 59.0625 C-41.9949479 50.50613358 -41.0975014 39.14042399 -37.26171875 31.10546875 C-31.93684598 21.53533658 -23.52960444 13.04724212 -13.125 9.0625 C-9.25 8.875 -9.25 8.875 -6.125 9.0625 C-6.62 8.0725 -6.62 8.0725 -7.125 7.0625 C-7.164992 5.06289988 -7.16846799 3.06202758 -7.125 1.0625 C-4.60024538 -0.19987731 -2.81299534 -0.03606404 0 0 Z M-14.125 20.0625 C-13.465 21.7125 -12.805 23.3625 -12.125 25.0625 C-13.115 25.3925 -14.105 25.7225 -15.125 26.0625 C-16.115 24.4125 -17.105 22.7625 -18.125 21.0625 C-19.30039996 21.98902701 -20.46510577 22.92913387 -21.625 23.875 C-22.2746875 24.39707031 -22.924375 24.91914063 -23.59375 25.45703125 C-25.47009128 27.05454833 -25.47009128 27.05454833 -25.125 30.0625 C-24.135 30.7225 -23.145 31.3825 -22.125 32.0625 C-22.125 33.0525 -22.125 34.0425 -22.125 35.0625 C-24.435 34.7325 -26.745 34.4025 -29.125 34.0625 C-29.65492692 35.51755358 -30.1736789 36.97668127 -30.6875 38.4375 C-30.97753906 39.24960938 -31.26757812 40.06171875 -31.56640625 40.8984375 C-32.38473028 43.09017749 -32.38473028 43.09017749 -31.125 45.0625 C-27.495 45.0625 -23.865 45.0625 -20.125 45.0625 C-20.125 46.0525 -20.125 47.0425 -20.125 48.0625 C-24.085 48.0625 -28.045 48.0625 -32.125 48.0625 C-31.68953143 54.66968405 -31.68953143 54.66968405 -28.125 60.0625 C-27.34125 59.5675 -26.5575 59.0725 -25.75 58.5625 C-23.125 57.0625 -23.125 57.0625 -21.125 57.0625 C-21.125 58.7125 -21.125 60.3625 -21.125 62.0625 C-24.095 62.5575 -24.095 62.5575 -27.125 63.0625 C-26.795 64.0525 -26.465 65.0425 -26.125 66.0625 C-25.465 66.0625 -24.805 66.0625 -24.125 66.0625 C-23.856875 66.701875 -23.58875 67.34125 -23.3125 68 C-22.23832248 70.39381686 -22.23832248 70.39381686 -19.125 71.0625 C-18.795 72.0525 -18.465 73.0425 -18.125 74.0625 C-15.48159129 75.3583112 -15.48159129 75.3583112 -12.3125 76.3125 C-11.25417969 76.66828125 -10.19585937 77.0240625 -9.10546875 77.390625 C-5.94864369 78.33711864 -5.94864369 78.33711864 -2.125 77.0625 C-2.455 73.1025 -2.785 69.1425 -3.125 65.0625 C-1.805 65.3925 -0.485 65.7225 0.875 66.0625 C0.875 70.0225 0.875 73.9825 0.875 78.0625 C5.1927458 77.55452991 8.90802114 76.86567221 12.875 75.0625 C11.885 72.7525 10.895 70.4425 9.875 68.0625 C10.865 67.7325 11.855 67.4025 12.875 67.0625 C13.9375 69.4375 13.9375 69.4375 14.875 72.0625 C14.38 73.0525 14.38 73.0525 13.875 74.0625 C19.16163545 71.90868556 22.65370367 67.64013162 25.875 63.0625 C23.895 62.4025 21.915 61.7425 19.875 61.0625 C20.205 59.7425 20.535 58.4225 20.875 57.0625 C21.65875 57.5575 22.4425 58.0525 23.25 58.5625 C25.66052327 60.22787965 25.66052327 60.22787965 27.875 60.0625 C29.38559728 56.0027698 29.875 53.51639333 29.875 49.0625 C25.915 48.7325 21.955 48.4025 17.875 48.0625 C17.38 46.5775 17.38 46.5775 16.875 45.0625 C13.30869728 46.25126757 13.11536782 47.0912942 11.125 50.125 C8.58713342 53.12282108 7.25166364 53.97954182 3.36328125 54.8359375 C-3.01494317 55.10249016 -7.94969132 55.02526458 -12.9375 50.75 C-16.09403775 47.42622846 -18.0895252 45.10900671 -18.25 40.375 C-18.20875 39.281875 -18.1675 38.18875 -18.125 37.0625 C-14.13451059 36.74952044 -11.8475803 36.59198259 -8.4375 38.8125 C-3.8125 43.3125 -3.8125 43.3125 -2.125 45.0625 C1.44264285 43.54873919 3.71206287 41.45736871 6.421875 38.7109375 C7.26621094 37.86015625 8.11054688 37.009375 8.98046875 36.1328125 C9.85316406 35.24335938 10.72585937 34.35390625 11.625 33.4375 C12.51316406 32.5403125 13.40132812 31.643125 14.31640625 30.71875 C16.50716969 28.50442996 18.69312763 26.28557565 20.875 24.0625 C19.555 23.4025 18.235 22.7425 16.875 22.0625 C16.09125 22.7225 15.3075 23.3825 14.5 24.0625 C11.875 26.0625 11.875 26.0625 9.875 26.0625 C10.535 23.7525 11.195 21.4425 11.875 19.0625 C8.4730513 16.96899311 5.82227588 16.88307837 1.875 17.0625 C1.545 20.3625 1.215 23.6625 0.875 27.0625 C-0.445 27.3925 -1.765 27.7225 -3.125 28.0625 C-3.125 24.4325 -3.125 20.8025 -3.125 17.0625 C-7.86440561 16.78907275 -10.61050811 16.68858778 -14.125 20.0625 Z M24.80859375 35.99609375 C23.98488281 36.82238281 23.16117188 37.64867187 22.3125 38.5 C21.48621094 39.32371094 20.65992188 40.14742187 19.80859375 40.99609375 C17.76112465 42.71253279 17.76112465 42.71253279 17.875 44.0625 C21.835 44.0625 25.795 44.0625 29.875 44.0625 C29.215 40.7625 28.555 37.4625 27.875 34.0625 C26.52503279 33.94862465 26.52503279 33.94862465 24.80859375 35.99609375 Z " fill="#7B7C80" transform="translate(226.125,148.9375)"/>
<path d="M0 0 C1 1 1 1 1.11352539 2.85766602 C1.10828857 3.64842529 1.10305176 4.43918457 1.09765625 5.25390625 C1.09443359 6.10791016 1.09121094 6.96191406 1.08789062 7.84179688 C1.07951172 8.73962891 1.07113281 9.63746094 1.0625 10.5625 C1.05798828 11.46419922 1.05347656 12.36589844 1.04882812 13.29492188 C1.03700225 15.53001314 1.0205222 17.76497437 1 20 C1.63808594 19.98839844 2.27617187 19.97679687 2.93359375 19.96484375 C3.75988281 19.95582031 4.58617187 19.94679687 5.4375 19.9375 C6.26121094 19.92589844 7.08492188 19.91429687 7.93359375 19.90234375 C10 20 10 20 11 21 C11.125 24.5 11.125 24.5 11 28 C10 29 10 29 7.93359375 29.09765625 C7.10988281 29.08605469 6.28617187 29.07445312 5.4375 29.0625 C4.61121094 29.05347656 3.78492188 29.04445312 2.93359375 29.03515625 C1.97646484 29.01775391 1.97646484 29.01775391 1 29 C1.09357699 33.50272703 1.19967925 38.004919 1.31738281 42.50708008 C1.35565798 44.03857339 1.39051349 45.57015615 1.421875 47.10180664 C1.46755807 49.3038733 1.52554537 51.50532496 1.5859375 53.70703125 C1.59748871 54.39150833 1.60903992 55.07598541 1.62094116 55.78120422 C1.73273744 59.38460837 1.94394553 60.9159183 4 64 C7.04195427 64.33340471 7.04195427 64.33340471 10 64 C11.84975482 62.15024518 11.44171335 58.92972373 11.6875 56.4375 C12.72458611 48.78021757 15.044305 44.23436238 20.9921875 39.37109375 C25.71650459 36.14495504 30.59773314 35.59334923 36.08984375 36.53515625 C42.48019027 38.09027125 46.4346338 41.64639716 50 47 C51.8161935 51.67021185 52.32002835 56.22041814 52.65625 61.1796875 C52.82640625 62.08074219 52.82640625 62.08074219 53 63 C55.594718 64.297359 57.76785439 64.31574654 60.6640625 64.53515625 C61.78554688 64.62216797 62.90703125 64.70917969 64.0625 64.79882812 C65.238125 64.88583984 66.41375 64.97285156 67.625 65.0625 C69.40003906 65.19881836 69.40003906 65.19881836 71.2109375 65.33789062 C74.14036185 65.56232233 77.07002763 65.78285965 80 66 C79.67 66.66 79.34 67.32 79 68 C76.9375 68.625 76.9375 68.625 75 69 C76.32 70.32 77.64 71.64 79 73 C74.83346814 73.08777806 70.66717724 73.14065272 66.5 73.1875 C65.32695312 73.21263672 64.15390625 73.23777344 62.9453125 73.26367188 C56.20870227 73.32044106 51.11775521 72.88473358 45 70 C45 70.66 45 71.32 45 72 C38.41462926 75.2033223 33.21930865 76.99153342 26 75 C23.97084231 74.06057514 21.96124688 73.07401615 20 72 C16.86490423 71.7763932 16.86490423 71.7763932 13.875 73.5625 C9.45421172 75.52521784 5.61771504 75.22802622 1 74 C-3.99767975 71.50116012 -5.93762145 69.13308063 -8 64 C-8.24748197 61.17036749 -8.35238888 58.57693528 -8.29296875 55.7578125 C-8.28872391 54.98944061 -8.28447906 54.22106873 -8.28010559 53.42941284 C-8.26341826 50.99424015 -8.22578641 48.5599192 -8.1875 46.125 C-8.17244023 44.46615785 -8.15875409 42.80730263 -8.14648438 41.1484375 C-8.11354759 37.0986341 -8.06183594 33.04946106 -8 29 C-9.299375 29.020625 -10.59875 29.04125 -11.9375 29.0625 C-13.29165633 29.08399454 -14.64756083 29.07148199 -16 29 C-17 28 -17 28 -17.125 24.5 C-17 21 -17 21 -16 20 C-13.36 20 -10.72 20 -8 20 C-8 13.73 -8 7.46 -8 1 C-5.26752652 -0.36623674 -3.01801098 -0.128426 0 0 Z M23 50 C21.80231735 53.77427624 21.75035603 56.97872923 22.6875 60.8125 C24.27236229 63.45393715 25.22588713 64.61294357 28 66 C32.07206795 66.51991885 32.07206795 66.51991885 36 66 C38.69105198 63.82425584 40.45532928 62.08934144 42 59 C42.12243863 54.46977058 41.81830145 51.01667755 38.9375 47.4375 C33.0479219 44.55536604 27.38745029 44.68187843 23 50 Z " fill="#0A75BB" transform="translate(286,148)"/>
<path d="M0 0 C1 1 1 1 1.5625 4.5625 C1.51897111 8.6034322 0.22271749 10.3841295 -2.5625 13.25 C-5.13662844 15.59673193 -7.5805398 17.43967638 -10.6875 19 C-14.4944721 21.29854919 -15.68585482 23.33178159 -17.8125 27.109375 C-19.43278065 29.68903236 -21.5668986 31.20718844 -24 33 C-24.556875 33.7425 -25.11375 34.485 -25.6875 35.25 C-26.120625 35.8275 -26.55375 36.405 -27 37 C-27.66 37 -28.32 37 -29 37 C-29.309375 37.639375 -29.61875 38.27875 -29.9375 38.9375 C-31 41 -31 41 -32 42 C-44.41492619 43.37769673 -44.41492619 43.37769673 -49.66796875 40.578125 C-51.67015237 38.82011012 -53.35136562 37.09053638 -55 35 C-55.556875 34.33871094 -56.11375 33.67742187 -56.6875 32.99609375 C-58.64441105 30.01995819 -58.26163844 27.46670934 -58 24 C-57 23 -57 23 -53.8125 22.625 C-48.82567393 23.11550748 -47.44699846 24.46892841 -44 28 C-44 28.66 -44 29.32 -44 30 C-41.73830984 30.87403672 -41.73830984 30.87403672 -39 31 C-36.5404335 29.37084494 -36.5404335 29.37084494 -34.3125 26.8984375 C-33.01699219 25.57392578 -33.01699219 25.57392578 -31.6953125 24.22265625 C-30.36113281 22.81306641 -30.36113281 22.81306641 -29 21.375 C-28.11054688 20.45847656 -27.22109375 19.54195312 -26.3046875 18.59765625 C-24.63757937 16.87829548 -22.97671259 15.152845 -21.32421875 13.41943359 C-18.91558443 10.91212623 -16.46450166 8.45230116 -14 6 C-13.41476563 5.40574219 -12.82953125 4.81148437 -12.2265625 4.19921875 C-8.21434097 0.41207306 -5.73652369 -0.80311332 0 0 Z " fill="#0772B3" transform="translate(265,162)"/>
<path d="M0 0 C0.91007812 0.00902344 1.82015625 0.01804688 2.7578125 0.02734375 C3.80582031 0.04474609 3.80582031 0.04474609 4.875 0.0625 C6 2.3125 6 2.3125 6.875 5.0625 C5.9296875 7.234375 5.9296875 7.234375 4.875 9.0625 C6.15375 9.10375 7.4325 9.145 8.75 9.1875 C14.5814494 9.81692628 19.32028865 12.42957547 23.875 16.0625 C24.37 17.5475 24.37 17.5475 24.875 19.0625 C23.1875 21.0625 23.1875 21.0625 20.875 23.0625 C19.20833333 23.0625 17.54166667 23.0625 15.875 23.0625 C13.56122853 24.95834109 13.56122853 24.95834109 11.875 27.0625 C11.215 26.7325 10.555 26.4025 9.875 26.0625 C10.205 23.7525 10.535 21.4425 10.875 19.0625 C6.42 18.0725 6.42 18.0725 1.875 17.0625 C1.875 20.3625 1.875 23.6625 1.875 27.0625 C0.225 27.3925 -1.425 27.7225 -3.125 28.0625 C-3.125 24.4325 -3.125 20.8025 -3.125 17.0625 C-6.095 17.7225 -9.065 18.3825 -12.125 19.0625 C-12.125 20.0525 -12.125 21.0425 -12.125 22.0625 C-12.125 23.3825 -12.125 24.7025 -12.125 26.0625 C-13.445 26.0625 -14.765 26.0625 -16.125 26.0625 C-17.875 24.0625 -17.875 24.0625 -19.125 22.0625 C-19.66769531 22.60519531 -20.21039063 23.14789063 -20.76953125 23.70703125 C-22.88802083 25.82552083 -25.00651042 27.94401042 -27.125 30.0625 C-27.93517578 30.93455078 -27.93517578 30.93455078 -28.76171875 31.82421875 C-30.125 33.0625 -30.125 33.0625 -32.125 33.0625 C-32.24875 33.84625 -32.3725 34.63 -32.5 35.4375 C-33.125 38.0625 -33.125 38.0625 -35.125 40.0625 C-35.785 39.4025 -36.445 38.7425 -37.125 38.0625 C-37.785 40.3725 -38.445 42.6825 -39.125 45.0625 C-39.455 45.0625 -39.785 45.0625 -40.125 45.0625 C-40.08222032 35.20178404 -36.1450043 26.0825043 -29.125 19.0625 C-15.44096904 8.50354186 -15.44096904 8.50354186 -6.125 9.0625 C-6.62 8.0725 -6.62 8.0725 -7.125 7.0625 C-7.164992 5.06289988 -7.16846799 3.06202758 -7.125 1.0625 C-4.60024538 -0.19987731 -2.81299534 -0.03606404 0 0 Z " fill="#48484A" transform="translate(226.125,148.9375)"/>
<path d="M0 0 C17.47372486 -0.75516698 17.47372486 -0.75516698 23 4 C25.86076088 7.32217393 26.6388029 10.45608682 26.49609375 14.86328125 C25.55584717 18.9130047 22.94193326 22.13428263 20 25 C19.34 25 18.68 25 18 25 C17.67 25.66 17.34 26.32 17 27 C17.59554688 27.25652344 18.19109375 27.51304687 18.8046875 27.77734375 C21.19696371 29.10969687 22.42728199 30.43368605 24.125 32.5625 C26.20903634 35.21025666 26.20903634 35.21025666 29 37 C29 37.99 29 38.98 29 40 C24.38876359 40.96514251 20.59988391 41.10528908 16 40 C10.16896357 36.08330928 3.25231553 29.7569466 1 23 C2.06748551 19.84662327 3.64550505 17.34922763 6 15 C9.02988111 14.03893587 11.83580191 13.88970116 15 14 C15.33 13.01 15.66 12.02 16 11 C11.38 11 6.76 11 2 11 C1.34 12.32 0.68 13.64 0 15 C-1.15774649 10.36901402 -2.19218189 4.38436379 0 0 Z " fill="#2D3185" transform="translate(390,183)"/>
<path d="M0 0 C1.8125 0.05078125 1.8125 0.05078125 4 0.3125 C4.721875 0.39113281 5.44375 0.46976563 6.1875 0.55078125 C7.0846875 0.77314453 7.0846875 0.77314453 8 1 C9.35187479 3.70374958 9.12964275 5.83129958 9.1328125 8.85546875 C9.13474609 10.62567383 9.13474609 10.62567383 9.13671875 12.43164062 C9.13285156 13.67107422 9.12898438 14.91050781 9.125 16.1875 C9.12886719 17.40759766 9.13273437 18.62769531 9.13671875 19.88476562 C9.12667715 29.12805433 9.12667715 29.12805433 8.46484375 33.68359375 C7.79661221 38.45106077 8.15457941 43.08160976 8.4375 47.875 C8.80987199 54.59608465 9.06220968 61.26752994 9 68 C8.67 67.01 8.34 66.02 8 65 C7.34 65 6.68 65 6 65 C5.67 66.32 5.34 67.64 5 69 C3.5 67.625 3.5 67.625 2 66 C2 65.34 2 64.68 2 64 C1.34 64 0.68 64 0 64 C-0.68850832 48.08007619 -1.1063152 32.18430906 -1.125 16.25 C-1.12749756 15.49245422 -1.12999512 14.73490845 -1.13256836 13.95440674 C-1.13840373 11.80809834 -1.13700432 9.66193461 -1.1328125 7.515625 C-1.13168457 6.28102539 -1.13055664 5.04642578 -1.12939453 3.77441406 C-1 1 -1 1 0 0 Z " fill="#13579C" transform="translate(382,148)"/>
<path d="M0 0 C0 0.99 0 1.98 0 3 C0.66 3 1.32 3 2 3 C2.33 24.12 2.66 45.24 3 67 C3.99 67 4.98 67 6 67 C5.34 68.32 4.68 69.64 4 71 C3.505 70.01 3.505 70.01 3 69 C1.5459375 68.814375 1.5459375 68.814375 0.0625 68.625 C-3 68 -3 68 -4.17919922 66.46386719 C-5.34243572 62.9720817 -5.24570527 59.58976201 -5.1953125 55.953125 C-5.1924826 55.18192322 -5.18965271 54.41072144 -5.18673706 53.6161499 C-5.17557013 51.16060668 -5.15047229 48.7054324 -5.125 46.25 C-5.11496568 44.58203653 -5.10584061 42.91406732 -5.09765625 41.24609375 C-5.07564225 37.16392103 -5.04113667 33.082023 -5 29 C-6.299375 29.020625 -7.59875 29.04125 -8.9375 29.0625 C-10.29165633 29.08399454 -11.64756083 29.07148199 -13 29 C-14 28 -14 28 -14.125 24.5 C-14 21 -14 21 -13 20 C-10.36 20 -7.72 20 -5 20 C-5 13.73 -5 7.46 -5 1 C-3 0 -3 0 0 0 Z " fill="#0798DD" transform="translate(283,148)"/>
<path d="M0 0 C1.32 0.33 2.64 0.66 4 1 C4 7.27 4 13.54 4 20 C6.97 20 9.94 20 13 20 C14 21 14 21 14.125 24.5 C14 28 14 28 13 29 C11.48071962 29.07179964 9.95832518 29.08392007 8.4375 29.0625 C7.61121094 29.05347656 6.78492188 29.04445312 5.93359375 29.03515625 C4.97646484 29.01775391 4.97646484 29.01775391 4 29 C4.09357699 33.50272703 4.19967925 38.004919 4.31738281 42.50708008 C4.35565798 44.03857339 4.39051349 45.57015615 4.421875 47.10180664 C4.46755807 49.3038733 4.52554537 51.50532496 4.5859375 53.70703125 C4.59748871 54.39150833 4.60903992 55.07598541 4.62094116 55.78120422 C4.73273744 59.38460837 4.94394553 60.9159183 7 64 C10.08365871 64.2502157 10.08365871 64.2502157 13 64 C13.66 62.02 14.32 60.04 15 58 C15.598125 58.78375 16.19625 59.5675 16.8125 60.375 C18.91085249 63.14574323 18.91085249 63.14574323 22 65 C23.1875 67.625 23.1875 67.625 24 70 C26.31 70 28.62 70 31 70 C31.33 71.32 31.66 72.64 32 74 C34.31 73.67 36.62 73.34 39 73 C38.34 71.68 37.68 70.36 37 69 C37.66 68.67 38.32 68.34 39 68 C37.96939453 67.92652344 37.96939453 67.92652344 36.91796875 67.8515625 C36.01691406 67.77679688 35.11585938 67.70203125 34.1875 67.625 C33.29417969 67.55539063 32.40085937 67.48578125 31.48046875 67.4140625 C29 67 29 67 26 65 C26.33 64.01 26.66 63.02 27 62 C27.495 62.495 27.99 62.99 28.5 63.5 C32.75231227 66.05138736 37.29224644 65.28462559 42 64.5 C42.66 64.335 43.32 64.17 44 64 C45.125 67.3125 45.125 67.3125 46 71 C43.50682042 74.73976937 42.34255424 75.05253362 38 76 C32.26072904 76.01026703 28.05208557 74.76661829 23 72 C19.86490423 71.7763932 19.86490423 71.7763932 16.875 73.5625 C12.467136 75.51947979 8.60280949 75.25076345 4 74 C1.61021785 72.87366825 0.04708533 71.73214913 -2 70 C-2 69.34 -2 68.68 -2 68 C-0.02 68.66 1.96 69.32 4 70 C4.66 69.01 5.32 68.02 6 67 C5.01 67 4.02 67 3 67 C2.23818487 62.9434164 1.87746761 59.11983446 1.88647461 54.99462891 C1.88655014 53.83387848 1.88662567 52.67312805 1.88670349 51.47720337 C1.89186478 50.23949188 1.89702606 49.0017804 1.90234375 47.7265625 C1.9037587 46.44768158 1.90517365 45.16880066 1.90663147 43.85116577 C1.91126978 40.46788664 1.92023919 37.08467614 1.93133545 33.70141602 C1.94160485 30.24235626 1.94614089 26.78328939 1.95117188 23.32421875 C1.96218391 16.54946034 1.97890936 9.77473413 2 3 C1.34 3 0.68 3 0 3 C0 2.01 0 1.02 0 0 Z " fill="#1D89BB" transform="translate(283,148)"/>
<path d="M0 0 C1.625 1.4375 1.625 1.4375 3 3 C3.99 3.33 4.98 3.66 6 4 C7.1875 7.0625 7.1875 7.0625 8 10 C6.69675781 9.93039063 6.69675781 9.93039063 5.3671875 9.859375 C-1.92864419 9.39652999 -1.92864419 9.39652999 -8.75 11.5 C-11.7310044 14.81222711 -11.97618124 17.72056345 -12 22 C-12.02126953 23.02673828 -12.02126953 23.02673828 -12.04296875 24.07421875 C-12.05962093 25.71612386 -12.03420069 27.35836667 -12 29 C-8.99221479 30.00259507 -6.46179353 30.30314642 -3.3125 30.5625 C-2.31863281 30.64628906 -1.32476562 30.73007813 -0.30078125 30.81640625 C0.83810547 30.90728516 0.83810547 30.90728516 2 31 C1.01 32.485 1.01 32.485 0 34 C0.99 34.99 1.98 35.98 3 37 C0.04335481 38.4783226 -2.74229737 38.06032783 -6 38 C-6.33 37.01 -6.66 36.02 -7 35 C-8.11375 35.04125 -9.2275 35.0825 -10.375 35.125 C-14 35 -14 35 -16 33 C-16 31.68 -16 30.36 -16 29 C-16.598125 28.773125 -17.19625 28.54625 -17.8125 28.3125 C-20.78503192 26.52898085 -21.69404761 25.23051382 -23 22 C-23.52891447 15.70110947 -21.53904321 11.56291774 -17.66796875 6.7265625 C-12.96671192 1.86015613 -6.90023805 -0.9583664 0 0 Z " fill="#0D9EDC" transform="translate(321,184)"/>
<path d="M0 0 C4.7206807 7.08102105 3.65595713 18.31191462 2.7265625 26.37109375 C1.57793963 31.75661797 -1.17679003 36.34493623 -4 41 C-4.66 41 -5.32 41 -6 41 C-6 40.01 -6 39.02 -6 38 C-6.99 38.99 -7.98 39.98 -9 41 C-9.66 40.34 -10.32 39.68 -11 39 C-10.34 38.01 -9.68 37.02 -9 36 C-9.99 36.66 -10.98 37.32 -12 38 C-11.34 36.68 -10.68 35.36 -10 34 C-11.98 33.01 -13.96 32.02 -16 31 C-15.67 29.68 -15.34 28.36 -15 27 C-11.42424104 27 -9.94704065 28.08840607 -7 30 C-6.34 26.37 -5.68 22.74 -5 19 C-8.96 19 -12.92 19 -17 19 C-17.33 17.68 -17.66 16.36 -18 15 C-17 14 -17 14 -14.27734375 13.90234375 C-12.62412109 13.91974609 -12.62412109 13.91974609 -10.9375 13.9375 C-9.28041016 13.95103516 -9.28041016 13.95103516 -7.58984375 13.96484375 C-6.73519531 13.97644531 -5.88054687 13.98804688 -5 14 C-5.99 11.03 -6.98 8.06 -8 5 C-9.65 6.32 -11.3 7.64 -13 9 C-12.07933074 4.97207198 -10.40632779 3.31536059 -7.0625 1.125 C-3.42940794 -1.14313598 -3.42940794 -1.14313598 0 0 Z " fill="#6D6F73" transform="translate(261,179)"/>
<path d="M0 0 C2.4375 0.75 2.4375 0.75 5 2 C5.8125 4.125 5.8125 4.125 6 6 C2.37673261 7.2077558 1.35853631 6.54311128 -2 5 C-2.66 8.3 -3.32 11.6 -4 15 C-0.37 15 3.26 15 7 15 C7.33 16.32 7.66 17.64 8 19 C7 20 7 20 4.49609375 20.09765625 C3.48675781 20.08605469 2.47742188 20.07445312 1.4375 20.0625 C0.42558594 20.05347656 -0.58632812 20.04445312 -1.62890625 20.03515625 C-2.80259766 20.01775391 -2.80259766 20.01775391 -4 20 C-3.41825155 25.3086849 -3.41825155 25.3086849 -1 30 C-0.21625 29.484375 0.5675 28.96875 1.375 28.4375 C2.24125 27.963125 3.1075 27.48875 4 27 C4.66 27.33 5.32 27.66 6 28 C6 29.65 6 31.3 6 33 C3.03 33.495 3.03 33.495 0 34 C-0.33 34.99 -0.66 35.98 -1 37 C-2.32 36.67 -3.64 36.34 -5 36 C-4.34 34.35 -3.68 32.7 -3 31 C-5.97 33.475 -5.97 33.475 -9 36 C-12.79414358 28.74163837 -14.5763821 21.7006376 -12.328125 13.5703125 C-11.61784649 11.68740437 -10.81732161 9.83897362 -10 8 C-9.34 8.66 -8.68 9.32 -8 10 C-5.8614515 7.8614515 -5.57344937 6.86724686 -5 4 C-4.0409375 3.8453125 -4.0409375 3.8453125 -3.0625 3.6875 C-2.381875 3.460625 -1.70125 3.23375 -1 3 C-0.67 2.01 -0.34 1.02 0 0 Z " fill="#696B6E" transform="translate(199,178)"/>
<path d="M0 0 C1.07354736 0.01571045 2.14709473 0.0314209 3.25317383 0.04760742 C4.30142334 0.0551001 5.34967285 0.06259277 6.4296875 0.0703125 C8.4247937 0.11128052 8.4247937 0.11128052 10.46020508 0.15307617 C14.68833008 0.21495117 18.91645508 0.27682617 23.27270508 0.34057617 C23.27270508 9.91057617 23.27270508 19.48057617 23.27270508 29.34057617 C23.93270508 29.34057617 24.59270508 29.34057617 25.27270508 29.34057617 C26.89770508 31.34057617 26.89770508 31.34057617 28.27270508 33.34057617 C28.60270508 32.35057617 28.93270508 31.36057617 29.27270508 30.34057617 C29.93270508 30.34057617 30.59270508 30.34057617 31.27270508 30.34057617 C31.46682688 31.81888839 31.65282639 33.29826933 31.83520508 34.77807617 C31.99182617 36.01364258 31.99182617 36.01364258 32.15161133 37.27416992 C32.21155273 38.29704102 32.21155273 38.29704102 32.27270508 39.34057617 C31.27270508 40.34057617 31.27270508 40.34057617 29.46020508 40.47338867 C28.73833008 40.47081055 28.01645508 40.46823242 27.27270508 40.46557617 C26.55083008 40.4681543 25.82895508 40.47073242 25.08520508 40.47338867 C23.27270508 40.34057617 23.27270508 40.34057617 22.27270508 39.34057617 C22.18494903 37.1949879 22.16575289 35.04653196 22.17504883 32.89916992 C22.17827148 31.59399414 22.18149414 30.28881836 22.18481445 28.9440918 C22.19317107 27.55541927 22.20163603 26.1667474 22.21020508 24.77807617 C22.21521842 23.38549961 22.21978161 21.99292136 22.22387695 20.6003418 C22.23571074 17.18037747 22.25219628 13.76049773 22.27270508 10.34057617 C21.39590088 10.41783936 20.51909668 10.49510254 19.61572266 10.57470703 C18.45709717 10.67146729 17.29847168 10.76822754 16.10473633 10.86791992 C14.38734253 11.0147522 14.38734253 11.0147522 12.63525391 11.16455078 C8.3662839 11.38802623 4.49102136 10.98404815 0.27270508 10.34057617 C0.93270508 8.69057617 1.59270508 7.04057617 2.27270508 5.34057617 C2.93270508 5.34057617 3.59270508 5.34057617 4.27270508 5.34057617 C4.27270508 4.68057617 4.27270508 4.02057617 4.27270508 3.34057617 C0.97270508 3.34057617 -2.32729492 3.34057617 -5.72729492 3.34057617 C-2.72729492 0.34057617 -2.72729492 0.34057617 0 0 Z " fill="#244C8C" transform="translate(358.727294921875,182.659423828125)"/>
<path d="M0 0 C0 0.99 0 1.98 0 3 C0.99 3.33 1.98 3.66 3 4 C2.73801581 7.84243475 2.55565054 9.50283899 -0.375 12.125 C-1.24125 12.74375 -2.1075 13.3625 -3 14 C-3.556875 14.7425 -4.11375 15.485 -4.6875 16.25 C-5.120625 16.8275 -5.55375 17.405 -6 18 C-6.66 18 -7.32 18 -8 18 C-8.309375 18.639375 -8.61875 19.27875 -8.9375 19.9375 C-10 22 -10 22 -11 23 C-13.53049402 23.07313567 -16.03304837 23.09247527 -18.5625 23.0625 C-19.27341797 23.05798828 -19.98433594 23.05347656 -20.71679688 23.04882812 C-22.47790013 23.03700864 -24.23896036 23.01907263 -26 23 C-25.835 22.236875 -25.67 21.47375 -25.5 20.6875 C-24.90854604 17.96403764 -24.90854604 17.96403764 -25 15 C-23.35 15 -21.7 15 -20 15 C-20 15.66 -20 16.32 -20 17 C-19.4225 17.12375 -18.845 17.2475 -18.25 17.375 C-15.97664233 18.00648824 -14.0746471 18.88858191 -12 20 C-12.495 19.2575 -12.99 18.515 -13.5 17.75 C-15 15 -15 15 -15 11 C-13.30426931 8.9066497 -11.66962161 7.11100721 -9.75 5.25 C-9.25886719 4.74339844 -8.76773438 4.23679688 -8.26171875 3.71484375 C-5.22273774 0.70827854 -4.44791736 0 0 0 Z " fill="#1C80B5" transform="translate(244,181)"/>
<path d="M0 0 C1.32 0.66 2.64 1.32 4 2 C3.34 2.66 2.68 3.32 2 4 C2.33 4.66 2.66 5.32 3 6 C3.99 6.33 4.98 6.66 6 7 C7.1875 10.0625 7.1875 10.0625 8 13 C6.02 13.99 6.02 13.99 4 15 C2.68 13.35 1.36 11.7 0 10 C-0.54269531 10.54269531 -1.08539063 11.08539063 -1.64453125 11.64453125 C-3.76302083 13.76302083 -5.88151042 15.88151042 -8 18 C-8.81017578 18.87205078 -8.81017578 18.87205078 -9.63671875 19.76171875 C-11 21 -11 21 -13 21 C-13.185625 22.175625 -13.185625 22.175625 -13.375 23.375 C-14 26 -14 26 -16 28 C-16.66 27.34 -17.32 26.68 -18 26 C-18.66 28.31 -19.32 30.62 -20 33 C-20.33 33 -20.66 33 -21 33 C-20.95722032 23.13928404 -17.0200043 14.0200043 -10 7 C-6.73673507 4.5577147 -3.39801621 2.25021302 0 0 Z " fill="#585A5D" transform="translate(207,161)"/>
<path d="M0 0 C1 1 1 1 1.5625 4.5625 C1.51221052 8.57128976 0.26491835 10.34141966 -2.5 13.1875 C-6.34851851 16.67178372 -10.46333608 19.49035613 -15 22 C-15.66 21.34 -16.32 20.68 -17 20 C-17 18.68 -17 17.36 -17 16 C-17.99 15.67 -18.98 15.34 -20 15 C-20.99 15.99 -21.98 16.98 -23 18 C-23.66 17.67 -24.32 17.34 -25 17 C-10.39034483 -0.57724138 -10.39034483 -0.57724138 0 0 Z " fill="#235194" transform="translate(265,162)"/>
<path d="M0 0 C1.8125 0.05078125 1.8125 0.05078125 4 0.3125 C4.721875 0.39113281 5.44375 0.46976563 6.1875 0.55078125 C7.0846875 0.77314453 7.0846875 0.77314453 8 1 C9.16968953 3.33937907 9.13364221 4.77369368 9.125 7.375 C9.12757813 8.14585937 9.13015625 8.91671875 9.1328125 9.7109375 C9 12 9 12 8.52734375 13.8671875 C7.79899463 16.81295506 7.6492118 19.72554572 7.4375 22.75 C7.35371094 23.92046875 7.26992188 25.0909375 7.18359375 26.296875 C7.12300781 27.18890625 7.06242187 28.0809375 7 29 C6.34 29 5.68 29 5 29 C4.34 29.99 3.68 30.98 3 32 C2.67 31.67 2.34 31.34 2 31 C1.34 32.32 0.68 33.64 0 35 C-0.33 35 -0.66 35 -1 35 C-1.0246519 30.17619198 -1.04283693 25.35242033 -1.05493164 20.52856445 C-1.05997174 18.88630536 -1.06680378 17.24405077 -1.07543945 15.60180664 C-1.08751926 13.24624521 -1.09323139 10.89074291 -1.09765625 8.53515625 C-1.10281754 7.79660904 -1.10797882 7.05806183 -1.11329651 6.2971344 C-1.1134925 4.53101912 -1.06194719 2.76502854 -1 1 C-0.67 0.67 -0.34 0.34 0 0 Z " fill="#088DCD" transform="translate(382,148)"/>
<path d="M0 0 C1.625 1.4375 1.625 1.4375 3 3 C3.99 3.33 4.98 3.66 6 4 C7.1875 7.0625 7.1875 7.0625 8 10 C6.69675781 9.93039063 6.69675781 9.93039063 5.3671875 9.859375 C-1.92864419 9.39652999 -1.92864419 9.39652999 -8.75 11.5 C-12.64729444 15.83032715 -12 20.41202879 -12 26 C-12.66 26 -13.32 26 -14 26 C-14 21.71 -14 17.42 -14 13 C-13.34 12.67 -12.68 12.34 -12 12 C-12 11.01 -12 10.02 -12 9 C-13.3921875 10.2375 -13.3921875 10.2375 -14.8125 11.5 C-17.625 14 -17.625 14 -21 14 C-21.33 14.99 -21.66 15.98 -22 17 C-21.33888405 11.38051445 -18.68997723 7.64430217 -14.6875 3.75 C-10.29264717 0.88823536 -5.26636505 -0.73143959 0 0 Z " fill="#1498D4" transform="translate(321,184)"/>
<path d="M0 0 C3.66030584 0.87150139 5.17562624 2.84462978 7.625 5.625 C8.285 6.285 8.945 6.945 9.625 7.625 C9.625 8.615 9.625 9.605 9.625 10.625 C10.2025 10.851875 10.78 11.07875 11.375 11.3125 C14.22239809 12.97348222 15.74567193 14.94024561 17.625 17.625 C17.625 18.285 17.625 18.945 17.625 19.625 C14.10230051 20.9031476 11.32935807 21.31507447 7.625 20.625 C2.43699131 17.19214624 -3.41140807 11.51577578 -5.375 5.625 C-3.39425722 0.89322558 -3.39425722 0.89322558 0 0 Z " fill="#257FBA" transform="translate(396.375,200.375)"/>
<path d="M0 0 C4.29 0 8.58 0 13 0 C12.01 0.495 12.01 0.495 11 1 C11 1.66 11 2.32 11 3 C10.01 3.495 10.01 3.495 9 4 C9 4.99 9 5.98 9 7 C6 9 6 9 2 9 C2 10.32 2 11.64 2 13 C7.445 14.485 7.445 14.485 13 16 C13.33 17.32 13.66 18.64 14 20 C10.10405148 21.94797426 5.8898369 21.18823473 1.75 20.3125 C-1.62980917 18.69940926 -2.56410049 17.43020439 -4 14 C-4.99682077 8.87349318 -2.15564585 4.5133835 0 0 Z " fill="#095BA7" transform="translate(352,185)"/>
<path d="M0 0 C5.42234493 0.13555862 8.41573486 2.34319672 12.234375 5.9140625 C16.65444573 11.13600447 17.3117533 17.62333037 17.69140625 24.25 C17.79324219 24.8275 17.89507812 25.405 18 26 C20.594718 27.297359 22.76785439 27.31574654 25.6640625 27.53515625 C26.78554688 27.62216797 27.90703125 27.70917969 29.0625 27.79882812 C30.8259375 27.9293457 30.8259375 27.9293457 32.625 28.0625 C33.80835938 28.15337891 34.99171875 28.24425781 36.2109375 28.33789062 C39.14036185 28.56232233 42.07002763 28.78285965 45 29 C44.67 29.66 44.34 30.32 44 31 C40.10332753 30.91892198 36.20819696 30.80609388 32.3125 30.6875 C31.20970703 30.66494141 30.10691406 30.64238281 28.97070312 30.61914062 C27.90400391 30.58369141 26.83730469 30.54824219 25.73828125 30.51171875 C24.26935425 30.47244263 24.26935425 30.47244263 22.77075195 30.43237305 C19.54113238 29.92839417 17.60206285 28.96090707 15 27 C14.51171875 24.30078125 14.51171875 24.30078125 14.6875 21.3125 C14.75517578 19.82169922 14.75517578 19.82169922 14.82421875 18.30078125 C14.88222656 17.54152344 14.94023437 16.78226563 15 16 C14.01 15.67 13.02 15.34 12 15 C12 14.34 12 13.68 12 13 C11.01 13.495 11.01 13.495 10 14 C10 16.31 10 18.62 10 21 C9.34 21 8.68 21 8 21 C8 21.66 8 22.32 8 23 C7.34 22.67 6.68 22.34 6 22 C5.7265625 20.0390625 5.7265625 20.0390625 5.625 17.625 C5.33108779 13.97650868 5.33108779 13.97650868 3.3125 11 C0.5531418 9.80676402 -2.02047933 9.33858189 -5 9 C-5 8.67 -5 8.34 -5 8 C-1.04 8 2.92 8 7 8 C6.67 6.35 6.34 4.7 6 3 C5.195625 2.87625 4.39125 2.7525 3.5625 2.625 C2.716875 2.41875 1.87125 2.2125 1 2 C0.67 1.34 0.34 0.68 0 0 Z " fill="#1E6DA6" transform="translate(321,185)"/>
<path d="M0 0 C3.32886571 4.99329856 3.13770721 11.20551058 3.125 17 C3.12886719 18.7634375 3.12886719 18.7634375 3.1328125 20.5625 C3.00783333 23.79725504 2.6098924 26.82468717 2 30 C1.34 30 0.68 30 0 30 C-2.09158775 26.51402041 -3.18351381 23.96715735 -3 19.9375 C-3 15.66232003 -3.65722898 14.42404995 -6 11 C-6.71143088 9.01548229 -7.38991336 7.01797888 -8 5 C-9.65 6.32 -11.3 7.64 -13 9 C-12.07933074 4.97207198 -10.40632779 3.31536059 -7.0625 1.125 C-3.42940794 -1.14313598 -3.42940794 -1.14313598 0 0 Z " fill="#63676B" transform="translate(261,179)"/>
<path d="M0 0 C2.30848962 0.23170714 4.62229913 0.4119761 6.9375 0.5625 C8.80728516 0.68818359 8.80728516 0.68818359 10.71484375 0.81640625 C12.80752405 0.93335747 14.90405429 1 17 1 C17 1.66 17 2.32 17 3 C18.65 3.66 20.3 4.32 22 5 C21.45773019 8.79588866 19.79872437 10.47211993 17 13 C16.34 12.67 15.68 12.34 15 12 C15.33 9.69 15.66 7.38 16 5 C13.03 4.34 10.06 3.68 7 3 C7 6.3 7 9.6 7 13 C5.35 13.33 3.7 13.66 2 14 C2 10.37 2 6.74 2 3 C-0.24609375 3.35807292 -2.4921875 3.71614583 -4.73828125 4.07421875 C-7 4 -7 4 -8.79296875 2.51953125 C-9.19128906 2.01808594 -9.58960938 1.51664063 -10 1 C-8.71073008 0.63720544 -7.41846728 0.28503302 -6.125 -0.0625 C-5.40570313 -0.25972656 -4.68640625 -0.45695313 -3.9453125 -0.66015625 C-2 -1 -2 -1 0 0 Z " fill="#4E5D6A" transform="translate(221,163)"/>
<path d="M0 0 C7.60825264 0.93889075 13.93567444 3.18529304 20 8 C20.33 8.99 20.66 9.98 21 11 C19.25 13 19.25 13 17 15 C15.68 15 14.36 15 13 15 C12.9175 14.38125 12.835 13.7625 12.75 13.125 C12.20051917 10.83647371 12.20051917 10.83647371 10.0625 9.875 C9.0415625 9.441875 9.0415625 9.441875 8 9 C7.34 8.34 6.68 7.68 6 7 C4.32659873 7.29768624 2.66058056 7.6375623 1 8 C-0.94128253 7.91878575 -2.88084231 7.77195686 -4.8125 7.5625 C-5.78832031 7.46066406 -6.76414063 7.35882813 -7.76953125 7.25390625 C-8.50558594 7.17011719 -9.24164063 7.08632812 -10 7 C-9.360625 6.896875 -8.72125 6.79375 -8.0625 6.6875 C-7.381875 6.460625 -6.70125 6.23375 -6 6 C-5.67 5.01 -5.34 4.02 -5 3 C-4.67 3.66 -4.34 4.32 -4 5 C-1.36 5 1.28 5 4 5 C2.02 4.34 0.04 3.68 -2 3 C-1.34 2.67 -0.68 2.34 0 2 C0 1.34 0 0.68 0 0 Z " fill="#494D53" transform="translate(230,157)"/>
<path d="M0 0 C0.66 0 1.32 0 2 0 C2.33 12.21 2.66 24.42 3 37 C3.99 37 4.98 37 6 37 C5.34 38.32 4.68 39.64 4 41 C3.67 40.34 3.34 39.68 3 39 C2.34 39 1.68 39 1 39 C-1.61051792 34.47751105 -2.36203618 31.27339211 -2.29296875 26.0703125 C-2.28330078 24.78125 -2.27363281 23.4921875 -2.26367188 22.1640625 C-2.23861188 20.81770214 -2.21321712 19.47134797 -2.1875 18.125 C-2.17243504 16.75522295 -2.15874982 15.38542998 -2.14648438 14.015625 C-2.11121379 10.67667642 -2.06191896 7.33854325 -2 4 C-1.34 3.67 -0.68 3.34 0 3 C0 2.01 0 1.02 0 0 Z " fill="#049CDE" transform="translate(283,178)"/>
<path d="M0 0 C0.33 0 0.66 0 1 0 C1 20.79 1 41.58 1 63 C0.67 63 0.34 63 0 63 C0 51.45 0 39.9 0 28 C-2.64 28 -5.28 28 -8 28 C-9 27 -9 27 -9.125 23.5 C-9 20 -9 20 -8 19 C-5.36 19 -2.72 19 0 19 C0 12.73 0 6.46 0 0 Z " fill="#2B7EA8" transform="translate(278,149)"/>
<path d="M0 0 C1.33841672 0.31229724 2.67139075 0.64830932 4 1 C4.99 1 5.98 1 7 1 C8.32 1 9.64 1 11 1 C11 4.63 11 8.26 11 12 C10.01 12 9.02 12 8 12 C6.66431979 12.32380126 5.33076989 12.65657551 4 13 C2.33333333 13 0.66666667 13 -1 13 C-2.01936725 9.94189824 -2.00186825 8.50198793 -1.625 5.375 C-1.53476562 4.57835937 -1.44453125 3.78171875 -1.3515625 2.9609375 C-1 1 -1 1 0 0 Z " fill="#6C6C6D" transform="translate(281,227)"/>
<path d="M0 0 C0.33 0 0.66 0 1 0 C1.02720824 2.68756955 1.0469388 5.37485798 1.0625 8.0625 C1.07087891 8.81466797 1.07925781 9.56683594 1.08789062 10.34179688 C1.10808341 15.00633118 0.77595959 19.39923173 0 24 C-0.66 24 -1.32 24 -2 24 C-2.33 27.63 -2.66 31.26 -3 35 C-3.99 35 -4.98 35 -6 35 C-7.30981695 32.38036611 -7.37321553 30.10460289 -7.625 27.1875 C-7.72039062 26.14980469 -7.81578125 25.11210937 -7.9140625 24.04296875 C-7.99548957 21.15971036 -7.69071321 18.78862571 -7 16 C-6.34 16.66 -5.68 17.32 -5 18 C-4.34 16.35 -3.68 14.7 -3 13 C-2.67 13 -2.34 13 -2 13 C-1.34 8.71 -0.68 4.42 0 0 Z " fill="#1158C1" transform="translate(390,161)"/>
<path d="M0 0 C1.32 0.66 2.64 1.32 4 2 C3.34 2.66 2.68 3.32 2 4 C2.33 4.66 2.66 5.32 3 6 C3.99 6.33 4.98 6.66 6 7 C7.1875 10.0625 7.1875 10.0625 8 13 C6.02 13.99 6.02 13.99 4 15 C2.68 13.35 1.36 11.7 0 10 C-2.475 11.485 -2.475 11.485 -5 13 C-5.99 12.01 -6.98 11.02 -8 10 C-8.33 10.66 -8.66 11.32 -9 12 C-9.66 11.67 -10.32 11.34 -11 11 C-10.68276924 7.94918504 -10.11098219 7.09333887 -7.71484375 5.078125 C-6.34005859 4.17320312 -6.34005859 4.17320312 -4.9375 3.25 C-4.01839844 2.63640625 -3.09929687 2.0228125 -2.15234375 1.390625 C-1.44207031 0.93171875 -0.73179687 0.4728125 0 0 Z " fill="#4F5358" transform="translate(207,161)"/>
<path d="M0 0 C0.66 0.495 1.32 0.99 2 1.5 C7.17542085 4.08771042 12.47614346 3.38096413 18 2 C19.125 5.3125 19.125 5.3125 20 9 C17.50682042 12.73976937 16.34255424 13.05253362 12 14 C6.47691083 14.0098803 1.62448626 13.15305881 -3 10 C-4.88893122 7.75626953 -6.40940096 5.4794632 -8 3 C-7.67 2.34 -7.34 1.68 -7 1 C-3.67098753 3.21934164 -3.24976756 4.34683329 -2 8 C0.31 8 2.62 8 5 8 C5.33 9.32 5.66 10.64 6 12 C9.465 11.505 9.465 11.505 13 11 C12.34 9.68 11.68 8.36 11 7 C11.66 6.67 12.32 6.34 13 6 C12.31292969 5.95101562 11.62585938 5.90203125 10.91796875 5.8515625 C10.01691406 5.77679688 9.11585938 5.70203125 8.1875 5.625 C7.29417969 5.55539063 6.40085937 5.48578125 5.48046875 5.4140625 C3 5 3 5 0 3 C0 2.01 0 1.02 0 0 Z " fill="#2487BD" transform="translate(309,210)"/>
<path d="M0 0 C0.99 0.33 1.98 0.66 3 1 C2.67 1.33 2.34 1.66 2 2 C1.89828219 4.98870847 1.85928219 7.94887017 1.875 10.9375 C1.87693359 11.80181641 1.87886719 12.66613281 1.88085938 13.55664062 C1.91641143 18.80649355 2.11102888 23.97466903 2.78125 29.1875 C3.22067485 32.82844873 2.97134328 36.54474989 2.9296875 40.20703125 C2.91103687 42.74218443 2.89282633 45.27734089 2.875 47.8125 C2.85824219 49.08416016 2.84148437 50.35582031 2.82421875 51.66601562 C2.81777344 52.89642578 2.81132812 54.12683594 2.8046875 55.39453125 C2.79421387 56.51706299 2.78374023 57.63959473 2.77294922 58.79614258 C3.01140895 62.16098888 3.80087641 64.85933944 5 68 C3.35 67.34 1.7 66.68 0 66 C0 44.22 0 22.44 0 0 Z " fill="#1B9CD4" transform="translate(279,149)"/>
<path d="M0 0 C3.80433253 0.86462103 5.72115582 1.70685612 8.4375 4.5625 C10.48742484 9.07233465 10.35800951 12.28178748 9 17 C6.56423401 21.0886072 4.45268704 22.54855623 0 24 C-4.28358562 24.41379305 -8.57339732 24.32438288 -12.875 24.3125 C-14.61330078 24.33666992 -14.61330078 24.33666992 -16.38671875 24.36132812 C-22.69948625 24.36493542 -27.43582174 24.07408682 -33 21 C-32.34 20.67 -31.68 20.34 -31 20 C-30.01 20.33 -29.02 20.66 -28 21 C-23.37916564 21.26295488 -18.75250217 21.23147146 -14.125 21.25 C-12.84496094 21.270625 -11.56492187 21.29125 -10.24609375 21.3125 C-9.01246094 21.31765625 -7.77882813 21.3228125 -6.5078125 21.328125 C-4.81615967 21.34214355 -4.81615967 21.34214355 -3.09033203 21.35644531 C0.36367916 20.95805249 2.22822085 20.06309096 5 18 C6.50761098 15.10074812 6.97779233 12.25897599 7 9 C5.50574084 5.46413289 5.50574084 5.46413289 3 3 C2.01 2.67 1.02 2.34 0 2 C0 1.34 0 0.68 0 0 Z " fill="#2B5587" transform="translate(367,199)"/>
<path d="M0 0 C1.8125 0.05078125 1.8125 0.05078125 4 0.3125 C4.721875 0.39113281 5.44375 0.46976563 6.1875 0.55078125 C7.0846875 0.77314453 7.0846875 0.77314453 8 1 C9.16968953 3.33937907 9.13364221 4.77369368 9.125 7.375 C9.12757813 8.14585937 9.13015625 8.91671875 9.1328125 9.7109375 C9.00389788 11.9328189 8.61383717 13.86618508 8 16 C7.34 16 6.68 16 6 16 C6 11.71 6 7.42 6 3 C4.68 3.33 3.36 3.66 2 4 C1.67 13.9 1.34 23.8 1 34 C0.01 34.495 0.01 34.495 -1 35 C-1.0246519 30.17619198 -1.04283693 25.35242033 -1.05493164 20.52856445 C-1.05997174 18.88630536 -1.06680378 17.24405077 -1.07543945 15.60180664 C-1.08751926 13.24624521 -1.09323139 10.89074291 -1.09765625 8.53515625 C-1.10281754 7.79660904 -1.10797882 7.05806183 -1.11329651 6.2971344 C-1.1134925 4.53101912 -1.06194719 2.76502854 -1 1 C-0.67 0.67 -0.34 0.34 0 0 Z " fill="#3398C7" transform="translate(382,148)"/>
<path d="M0 0 C1.18851562 0.00902344 2.37703125 0.01804688 3.6015625 0.02734375 C4.51679688 0.03894531 5.43203125 0.05054688 6.375 0.0625 C6.375 2.0425 6.375 4.0225 6.375 6.0625 C5.0840864 6.39873796 3.79223903 6.73139249 2.5 7.0625 C1.78070313 7.248125 1.06140625 7.43375 0.3203125 7.625 C-3.83107373 8.5586451 -8.37812442 8.0625 -12.625 8.0625 C-11.965 6.4125 -11.305 4.7625 -10.625 3.0625 C-9.965 3.0625 -9.305 3.0625 -8.625 3.0625 C-8.625 2.4025 -8.625 1.7425 -8.625 1.0625 C-5.74084117 -0.37957941 -3.20778472 -0.03144887 0 0 Z " fill="#114A98" transform="translate(371.625,184.9375)"/>
<path d="M0 0 C0.5775 0.37125 1.155 0.7425 1.75 1.125 C4 2.29166667 4 2.29166667 6.25 1.125 C7.11625 0.568125 7.11625 0.568125 8 0 C9 1 9 1 9.09765625 3.50390625 C9.08605469 4.51324219 9.07445312 5.52257812 9.0625 6.5625 C9.05347656 7.57441406 9.04445313 8.58632812 9.03515625 9.62890625 C9.02355469 10.41136719 9.01195312 11.19382813 9 12 C7.68 12 6.36 12 5 12 C4.34 11.01 3.68 10.02 3 9 C2.34 10.32 1.68 11.64 1 13 C0.01 12.34 -0.98 11.68 -2 11 C-2.36328125 8.90625 -2.36328125 8.90625 -2.3125 6.5 C-2.30863281 5.7059375 -2.30476563 4.911875 -2.30078125 4.09375 C-2 2 -2 2 0 0 Z " fill="#646466" transform="translate(323,227)"/>
<path d="M0 0 C-0.33 1.32 -0.66 2.64 -1 4 C1.31 4.66 3.62 5.32 6 6 C5.67 7.32 5.34 8.64 5 10 C4.34 10 3.68 10 3 10 C3 10.66 3 11.32 3 12 C4.65 12 6.3 12 8 12 C7.67 14.31 7.34 16.62 7 19 C2.24778545 16.62389273 -1.05681301 13.37300023 -4 9 C-5.0625 5.75 -5.0625 5.75 -5 3 C-3.41464922 0.73521317 -2.79754986 0 0 0 Z " fill="#737577" transform="translate(196,209)"/>
<path d="M0 0 C0 1.32 0 2.64 0 4 C0.33 4.66 0.66 5.32 1 6 C1.125 9.0625 1.125 9.0625 1 12 C0 13 0 13 -2.875 13.25 C-6 13 -6 13 -7.875 11.9375 C-9.66235303 8.85928089 -9.43386742 6.47093932 -9 3 C-6.29148704 -0.10977414 -4.00164289 -0.33347024 0 0 Z " fill="#797676" transform="translate(370,227)"/>
<path d="M0 0 C4.98682607 0.49050748 6.36550154 1.84392841 9.8125 5.375 C9.8125 6.035 9.8125 6.695 9.8125 7.375 C10.8025 7.705 11.7925 8.035 12.8125 8.375 C11.8225 8.87 11.8225 8.87 10.8125 9.375 C9.4925 8.385 8.1725 7.395 6.8125 6.375 C4.81266466 7.16617904 4.81266466 7.16617904 2.8125 8.375 C1.76800089 11.50849732 1.87826355 12.36468256 2.8125 15.375 C-3.0625 10.625 -3.0625 10.625 -4.1875 8.375 C-4.3125 4.8125 -4.3125 4.8125 -4.1875 1.375 C-3.1875 0.375 -3.1875 0.375 0 0 Z " fill="#155BA0" transform="translate(211.1875,184.625)"/>
<path d="M0 0 C0.91007813 0.00902344 1.82015625 0.01804688 2.7578125 0.02734375 C3.45648438 0.03894531 4.15515625 0.05054688 4.875 0.0625 C5.535 1.7125 6.195 3.3625 6.875 5.0625 C4.21019416 8.51107226 1.02161606 9.17393942 -3.125 10.0625 C-4.115 9.7325 -5.105 9.4025 -6.125 9.0625 C-7.47939668 6.35370665 -7.19001451 4.05316732 -7.125 1.0625 C-4.60024538 -0.19987731 -2.81299534 -0.03606404 0 0 Z " fill="#3D3D3D" transform="translate(226.125,148.9375)"/>
<path d="M0 0 C0.33 0 0.66 0 1 0 C1 6.6 1 13.2 1 20 C1.66 20 2.32 20 3 20 C4.625 22 4.625 22 6 24 C6.33 23.01 6.66 22.02 7 21 C7.66 21 8.32 21 9 21 C9.19412181 22.47831221 9.38012131 23.95769316 9.5625 25.4375 C9.66691406 26.26121094 9.77132813 27.08492187 9.87890625 27.93359375 C9.91886719 28.61550781 9.95882813 29.29742187 10 30 C9 31 9 31 7.1875 31.1328125 C6.465625 31.13023437 5.74375 31.12765625 5 31.125 C4.278125 31.12757813 3.55625 31.13015625 2.8125 31.1328125 C1 31 1 31 0 30 C-0.08783542 27.78144736 -0.10694609 25.56011504 -0.09765625 23.33984375 C-0.0962413 22.67537735 -0.09482635 22.01091095 -0.09336853 21.3263092 C-0.08775518 19.19666101 -0.07520054 17.06711661 -0.0625 14.9375 C-0.05748671 13.49674631 -0.05292351 12.05599097 -0.04882812 10.61523438 C-0.03778145 7.07678898 -0.02050792 3.53840461 0 0 Z " fill="#243E85" transform="translate(381,192)"/>
<path d="M0 0 C3.465 1.98 3.465 1.98 7 4 C7.33 2.68 7.66 1.36 8 0 C10.55488699 2.55488699 10 3.53111409 10 7 C10.66 7.66 11.32 8.32 12 9 C11.34 9 10.68 9 10 9 C10.33 10.65 10.66 12.3 11 14 C10.01 14.33 9.02 14.66 8 15 C8 14.01 8 13.02 8 12 C7.01 12.99 6.02 13.98 5 15 C4.34 14.34 3.68 13.68 3 13 C3.66 12.01 4.32 11.02 5 10 C4.01 10.66 3.02 11.32 2 12 C2.66 10.68 3.32 9.36 4 8 C2.02 7.01 0.04 6.02 -2 5 C-1.125 1.125 -1.125 1.125 0 0 Z " fill="#737479" transform="translate(247,205)"/>
<path d="M0 0 C3 1.8125 3 1.8125 6 4 C6 4.99 6 5.98 6 7 C6.5775 7.226875 7.155 7.45375 7.75 7.6875 C10.59739809 9.34848222 12.12067193 11.31524561 14 14 C14 14.66 14 15.32 14 16 C11.03 16.33 8.06 16.66 5 17 C4.67 15.68 4.34 14.36 4 13 C3.34 12.34 2.68 11.68 2 11 C1.3671875 8.90625 1.3671875 8.90625 0.875 6.5 C0.70742188 5.7059375 0.53984375 4.911875 0.3671875 4.09375 C0 2 0 2 0 0 Z " fill="#0C69B0" transform="translate(400,204)"/>
<path d="M0 0 C1 1 1 1 1.3125 4.875 C1.29189189 8.70810811 1.29189189 8.70810811 -1 11 C-1.99 11.495 -1.99 11.495 -3 12 C-3 11.34 -3 10.68 -3 10 C-3.99 9.67 -4.98 9.34 -6 9 C-6.33 8.01 -6.66 7.02 -7 6 C-7.5775 6.350625 -8.155 6.70125 -8.75 7.0625 C-11.39786506 8.16577711 -12.33185326 7.80156509 -15 7 C-7.00219849 -1.14321608 -7.00219849 -1.14321608 0 0 Z " fill="#263E93" transform="translate(265,162)"/>
<path d="M0 0 C2 2 2 2 2.1953125 4.1640625 C2.17210937 4.97617188 2.14890625 5.78828125 2.125 6.625 C2.10695313 7.44226563 2.08890625 8.25953125 2.0703125 9.1015625 C2.03550781 10.04128906 2.03550781 10.04128906 2 11 C-3.625 13.125 -3.625 13.125 -7 12 C-7 8.37 -7 4.74 -7 1 C-4.48718205 -0.25640898 -2.78302919 -0.20872719 0 0 Z " fill="#767578" transform="translate(406,227)"/>
<path d="M0 0 C3.73487777 0.4979837 5.81237635 0.87491756 9 3 C11.19293764 7.71481592 10.91577113 10.96325877 10 16 C9.96454703 17.66628955 9.94951812 19.33409803 10 21 C9.34 21 8.68 21 8 21 C8 21.66 8 22.32 8 23 C7.34 22.67 6.68 22.34 6 22 C5.7265625 20.0390625 5.7265625 20.0390625 5.625 17.625 C5.33108779 13.97650868 5.33108779 13.97650868 3.3125 11 C0.5531418 9.80676402 -2.02047933 9.33858189 -5 9 C-5 8.67 -5 8.34 -5 8 C-1.04 8 2.92 8 7 8 C6.67 6.35 6.34 4.7 6 3 C5.195625 2.87625 4.39125 2.7525 3.5625 2.625 C2.716875 2.41875 1.87125 2.2125 1 2 C0.67 1.34 0.34 0.68 0 0 Z " fill="#137FBA" transform="translate(321,185)"/>
<path d="M0 0 C1.64574566 -0.02688151 3.29161413 -0.04634123 4.9375 -0.0625 C5.85402344 -0.07410156 6.77054687 -0.08570313 7.71484375 -0.09765625 C10 0 10 0 11 1 C11.125 4.5 11.125 4.5 11 8 C10 9 10 9 7.96875 9.1328125 C7.1540625 9.13023437 6.339375 9.12765625 5.5 9.125 C4.6853125 9.12757813 3.870625 9.13015625 3.03125 9.1328125 C1 9 1 9 0 8 C-0.14115161 5.32941149 -0.04247107 2.67567762 0 0 Z " fill="#254B86" transform="translate(286,168)"/>
<path d="M0 0 C1.98511244 2.67990179 2.01340927 3.88378631 1.625 7.25 C1.41875 8.1575 1.2125 9.065 1 10 C-1.31 10.33 -3.62 10.66 -6 11 C-6.66 9.02 -7.32 7.04 -8 5 C-9.65 6.32 -11.3 7.64 -13 9 C-12.07933074 4.97207198 -10.40632779 3.31536059 -7.0625 1.125 C-3.42940794 -1.14313598 -3.42940794 -1.14313598 0 0 Z " fill="#5D5F65" transform="translate(261,179)"/>
<path d="M0 0 C1.4540625 0.0309375 1.4540625 0.0309375 2.9375 0.0625 C2.9375 1.3825 2.9375 2.7025 2.9375 4.0625 C3.2675 5.0525 3.5975 6.0425 3.9375 7.0625 C3.9375 9.0625 3.9375 11.0625 3.9375 13.0625 C1.60455225 13.10491723 -0.72952567 13.10342937 -3.0625 13.0625 C-4.0625 12.0625 -4.0625 12.0625 -4.1953125 9.59375 C-4.19273437 8.5934375 -4.19015625 7.593125 -4.1875 6.5625 C-4.19007813 5.5621875 -4.19265625 4.561875 -4.1953125 3.53125 C-3.99806288 -0.13527239 -3.74275407 0.07638274 0 0 Z " fill="#8D898B" transform="translate(385.0625,226.9375)"/>
<path d="M0 0 C0 3 0 3 -1.0625 5.25 C-2.29201686 8.85658279 -1.81916981 11.31373585 -1 15 C-0.01 16.485 -0.01 16.485 1 18 C3.92167234 18.5452622 6.67824236 18.92678849 9.625 19.1875 C10.42679687 19.26935547 11.22859375 19.35121094 12.0546875 19.43554688 C14.03525571 19.63596151 16.01751032 19.8195807 18 20 C18.125 22.875 18.125 22.875 18 26 C16 28 16 28 12.5234375 28.1953125 C11.14049032 28.18201493 9.75761346 28.15816232 8.375 28.125 C7.31539063 28.11146484 7.31539063 28.11146484 6.234375 28.09765625 C4.48943902 28.07407603 2.74467705 28.03820461 1 28 C1 27.67 1 27.34 1 27 C5.62 26.67 10.24 26.34 15 26 C15 25.01 15 24.02 15 23 C14.11957031 22.91363281 13.23914063 22.82726562 12.33203125 22.73828125 C1.66276996 21.44754931 1.66276996 21.44754931 -1.25 18.5 C-3.53392924 15.23724394 -4.15486525 13.55422413 -4.1875 9.625 C-4.20167969 8.85414063 -4.21585937 8.08328125 -4.23046875 7.2890625 C-3.97404645 4.7422241 -3.35625154 3.16048491 -2 1 C-1.34 0.67 -0.68 0.34 0 0 Z " fill="#245681" transform="translate(351,186)"/>
<path d="M0 0 C1.09570312 0.00902344 2.19140625 0.01804688 3.3203125 0.02734375 C4.16335938 0.03894531 5.00640625 0.05054688 5.875 0.0625 C5.875 0.7225 5.875 1.3825 5.875 2.0625 C6.865 2.3925 7.855 2.7225 8.875 3.0625 C8.545 4.3825 8.215 5.7025 7.875 7.0625 C5.235 6.4025 2.595 5.7425 -0.125 5.0625 C-0.125 5.7225 -0.125 6.3825 -0.125 7.0625 C-2.765 6.7325 -5.405 6.4025 -8.125 6.0625 C-8.125 4.4125 -8.125 2.7625 -8.125 1.0625 C-5.36047967 -0.31976016 -3.0788637 -0.03275387 0 0 Z " fill="#2B3191" transform="translate(402.125,184.9375)"/>
<path d="M0 0 C1.953125 1.3828125 1.953125 1.3828125 2.78125 3.765625 C2.92046875 4.67054688 3.0596875 5.57546875 3.203125 6.5078125 C3.35265625 7.41789063 3.5021875 8.32796875 3.65625 9.265625 C3.80320312 10.31363281 3.80320312 10.31363281 3.953125 11.3828125 C2.633125 11.3828125 1.313125 11.3828125 -0.046875 11.3828125 C-0.046875 10.7228125 -0.046875 10.0628125 -0.046875 9.3828125 C-0.645 9.8984375 -1.243125 10.4140625 -1.859375 10.9453125 C-2.58125 11.4196875 -3.303125 11.8940625 -4.046875 12.3828125 C-5.036875 12.0528125 -6.026875 11.7228125 -7.046875 11.3828125 C-6.59836842 9.56785588 -6.13777929 7.75588116 -5.671875 5.9453125 C-5.41664063 4.93597656 -5.16140625 3.92664063 -4.8984375 2.88671875 C-3.84684552 -0.20534758 -3.21291287 -0.96877907 0 0 Z " fill="#59595B" transform="translate(348.046875,227.6171875)"/>
<path d="M0 0 C0.8971875 0.7115625 0.8971875 0.7115625 1.8125 1.4375 C4.00382924 3.16465744 4.00382924 3.16465744 7 4 C8.1875 7.0625 8.1875 7.0625 9 10 C8.11957031 9.97679687 7.23914063 9.95359375 6.33203125 9.9296875 C5.17058594 9.91164062 4.00914062 9.89359375 2.8125 9.875 C1.66394531 9.85179687 0.51539063 9.82859375 -0.66796875 9.8046875 C-3.91740372 9.99515848 -6.08660521 10.60639873 -9 12 C-8.34 10.68 -7.68 9.36 -7 8 C-5.35 8 -3.7 8 -2 8 C-2.33 7.01 -2.66 6.02 -3 5 C-5.31 4.67 -7.62 4.34 -10 4 C-10 3.67 -10 3.34 -10 3 C-6.7 2.67 -3.4 2.34 0 2 C0 1.34 0 0.68 0 0 Z " fill="#0D8AD1" transform="translate(320,184)"/>
<path d="M0 0 C4.07944772 3.5231594 5.11375604 7.83024354 6 13 C3.6875 14.5625 3.6875 14.5625 1 16 C0.01 15.67 -0.98 15.34 -2 15 C-2.103125 14.05125 -2.20625 13.1025 -2.3125 12.125 C-2.68539295 8.70892499 -2.68539295 8.70892499 -6 7 C-4.7934375 6.6596875 -4.7934375 6.6596875 -3.5625 6.3125 C-2.716875 5.879375 -1.87125 5.44625 -1 5 C-0.10613836 2.45224694 -0.10613836 2.45224694 0 0 Z " fill="#135B96" transform="translate(298,206)"/>
<path d="M0 0 C1.921875 0.6796875 1.921875 0.6796875 4 2 C4.828125 4.3828125 4.828125 4.3828125 5.25 7.125 C5.39953125 8.03507813 5.5490625 8.94515625 5.703125 9.8828125 C5.85007812 10.93082031 5.85007812 10.93082031 6 12 C4.68 12 3.36 12 2 12 C2 11.34 2 10.68 2 10 C-0.475 11.485 -0.475 11.485 -3 13 C-4.10096216 9.73381227 -3.9223497 7.98446051 -2.625 4.8125 C-2.34914063 4.11769531 -2.07328125 3.42289063 -1.7890625 2.70703125 C-1 1 -1 1 0 0 Z " fill="#626062" transform="translate(306,227)"/>
<path d="M0 0 C0.66 0 1.32 0 2 0 C1.690625 0.5775 1.38125 1.155 1.0625 1.75 C-0.07077603 3.9207821 -0.07077603 3.9207821 -0.4375 6.125 C-1 8 -1 8 -4 10 C-7.6875 9.625 -7.6875 9.625 -11 9 C-11 5 -11 5 -9.375 2.75 C-6.38653545 0.54797349 -4.6290731 0.75806179 -1 1 C-0.67 0.67 -0.34 0.34 0 0 Z " fill="#0A8DCF" transform="translate(240,187)"/>
<path d="M0 0 C3.02163222 1.51081611 3.48382631 3.8453338 4.6015625 6.921875 C5 9 5 9 3.6875 12 C3.130625 12.66 2.57375 13.32 2 14 C1.67 13.34 1.34 12.68 1 12 C1.33 11.01 1.66 10.02 2 9 C0.68 8.67 -0.64 8.34 -2 8 C-1.67 7.01 -1.34 6.02 -1 5 C-6.02230086 6.47221435 -8.80278222 9.4489651 -12.3125 13.125 C-12.86228516 13.68832031 -13.41207031 14.25164062 -13.97851562 14.83203125 C-15.32595438 16.21462058 -16.66394273 17.60640916 -18 19 C-18.99 18.67 -19.98 18.34 -21 18 C-20.50371094 17.57589844 -20.00742188 17.15179688 -19.49609375 16.71484375 C-15.9697641 13.67028969 -12.55386154 10.59845499 -9.3125 7.25 C-6.75162689 4.6363858 -4.25683111 2.72420471 -1 1 C-0.67 0.67 -0.34 0.34 0 0 Z " fill="#1874AE" transform="translate(245,176)"/>
<path d="M0 0 C2 2 2 2 2 5.375 C1 9 1 9 -2.0625 11.4375 C-3.031875 11.953125 -4.00125 12.46875 -5 13 C-5.66 12.34 -6.32 11.68 -7 11 C-7 9.68 -7 8.36 -7 7 C-7.66 6.67 -8.32 6.34 -9 6 C-3.375 1.125 -3.375 1.125 0 0 Z " fill="#0C61AA" transform="translate(255,171)"/>
<path d="M0 0 C2.31 0 4.62 0 7 0 C6.01 0.495 6.01 0.495 5 1 C5 2.65 5 4.3 5 6 C8.96 6 12.92 6 17 6 C17 6.99 17 7.98 17 9 C12.38 9 7.76 9 3 9 C2.34 10.32 1.68 11.64 1 13 C-0.10228696 8.59085217 -0.07654536 4.51617599 0 0 Z " fill="#252C82" transform="translate(389,185)"/>
<path d="M0 0 C1.65 0 3.3 0 5 0 C5 0.66 5 1.32 5 2 C5.928125 2.12375 5.928125 2.12375 6.875 2.25 C9 3 9 3 10.25 5.0625 C10.4975 5.701875 10.745 6.34125 11 7 C10 8 10 8 7.49609375 8.09765625 C5.98208984 8.08025391 5.98208984 8.08025391 4.4375 8.0625 C3.42558594 8.05347656 2.41367188 8.04445312 1.37109375 8.03515625 C0.58863281 8.02355469 -0.19382813 8.01195312 -1 8 C-0.835 7.236875 -0.67 6.47375 -0.5 5.6875 C0.09145396 2.96403764 0.09145396 2.96403764 0 0 Z " fill="#178BCC" transform="translate(219,196)"/>
<path d="M0 0 C0 0.66 0 1.32 0 2 C-3.47325181 3.1577506 -6.36067448 3.06866652 -10 3 C-10.11730469 3.58265625 -10.23460937 4.1653125 -10.35546875 4.765625 C-11.03673294 7.12734085 -11.92045082 8.7330371 -13.3125 10.75 C-13.72113281 11.36359375 -14.12976563 11.9771875 -14.55078125 12.609375 C-16 14 -16 14 -20 14 C-20.33 14.99 -20.66 15.98 -21 17 C-20.33888405 11.38051445 -17.68997723 7.64430217 -13.6875 3.75 C-9.26932238 0.87304713 -5.23198396 0 0 0 Z " fill="#229FCB" transform="translate(320,184)"/>
<path d="M0 0 C0.66 0 1.32 0 2 0 C2.33 0.99 2.66 1.98 3 3 C5.97 3.33 8.94 3.66 12 4 C12.33 4.99 12.66 5.98 13 7 C13.99 7.33 14.98 7.66 16 8 C16 8.99 16 9.98 16 11 C16.66 11.33 17.32 11.66 18 12 C17.34 14.31 16.68 16.62 16 19 C15.67 19 15.34 19 15 19 C15 16.69 15 14.38 15 12 C13.35 12 11.7 12 10 12 C10.33 10.35 10.66 8.7 11 7 C10.37351562 6.86722656 9.74703125 6.73445312 9.1015625 6.59765625 C8.28429687 6.42105469 7.46703125 6.24445313 6.625 6.0625 C5.81289063 5.88847656 5.00078125 5.71445313 4.1640625 5.53515625 C2 5 2 5 0 4 C0 2.68 0 1.36 0 0 Z " fill="#1C4D93" transform="translate(354,194)"/>
<path d="M0 0 C0.66 0.495 1.32 0.99 2 1.5 C7.17542085 4.08771042 12.47614346 3.38096413 18 2 C18.66 4.31 19.32 6.62 20 9 C19 10 19 10 16.0625 10.25 C15.051875 10.1675 14.04125 10.085 13 10 C12.34 9.01 11.68 8.02 11 7 C11.66 6.67 12.32 6.34 13 6 C12.31292969 5.95101562 11.62585938 5.90203125 10.91796875 5.8515625 C10.01691406 5.77679688 9.11585938 5.70203125 8.1875 5.625 C7.29417969 5.55539063 6.40085937 5.48578125 5.48046875 5.4140625 C3 5 3 5 0 3 C0 2.01 0 1.02 0 0 Z " fill="#0785C7" transform="translate(309,210)"/>
<path d="M0 0 C0.66 0 1.32 0 2 0 C2.33 12.21 2.66 24.42 3 37 C3.99 37 4.98 37 6 37 C5.34 38.32 4.68 39.64 4 41 C3.67 40.34 3.34 39.68 3 39 C2.34 39 1.68 39 1 39 C0.01 35.535 0.01 35.535 -1 32 C-0.67 31.67 -0.34 31.34 0 31 C0.08790975 28.70848583 0.10694038 26.41427476 0.09765625 24.12109375 C0.09553383 23.09110008 0.09553383 23.09110008 0.09336853 22.04029846 C0.08775479 19.83932199 0.07520007 17.63844591 0.0625 15.4375 C0.05748676 13.94856917 0.05292355 12.45963676 0.04882812 10.97070312 C0.03778093 7.31376925 0.02050713 3.65689442 0 0 Z " fill="#0694D5" transform="translate(283,178)"/>
<path d="M0 0 C0.33 0.66 0.66 1.32 1 2 C1.61617188 2.29777344 2.23234375 2.59554687 2.8671875 2.90234375 C5.28214849 4.14520829 6.44124925 5.45119998 8.125 7.5625 C10.20903634 10.21025666 10.20903634 10.21025666 13 12 C13 12.99 13 13.98 13 15 C8.71 15 4.42 15 0 15 C-0.33 14.34 -0.66 13.68 -1 13 C3.455 12.505 3.455 12.505 8 12 C7.04663979 10.68388323 6.08714226 9.37221039 5.125 8.0625 C4.59132813 7.33160156 4.05765625 6.60070312 3.5078125 5.84765625 C2.11987896 3.88901765 2.11987896 3.88901765 0 3 C0 2.01 0 1.02 0 0 Z " fill="#2C5886" transform="translate(406,208)"/>
<path d="M0 0 C0 0.99 0 1.98 0 3 C0.99 3.33 1.98 3.66 3 4 C3 4.66 3 5.32 3 6 C1.46875 7.2890625 1.46875 7.2890625 -0.5 8.625 C-1.1496875 9.07101563 -1.799375 9.51703125 -2.46875 9.9765625 C-3.22671875 10.48316406 -3.22671875 10.48316406 -4 11 C-4.33 10.34 -4.66 9.68 -5 9 C-4.01 8.01 -3.02 7.02 -2 6 C-3.1446875 6.556875 -3.1446875 6.556875 -4.3125 7.125 C-5.199375 7.41375 -6.08625 7.7025 -7 8 C-7.99 7.34 -8.98 6.68 -10 6 C-9.09650406 4.98808455 -8.17659153 3.99081074 -7.25 3 C-6.48429688 2.1646875 -6.48429688 2.1646875 -5.703125 1.3125 C-4 0 -4 0 0 0 Z " fill="#0578BD" transform="translate(244,181)"/>
<path d="M0 0 C3.96 0 7.92 0 12 0 C11.01 1.485 11.01 1.485 10 3 C10.99 3.99 11.98 4.98 13 6 C10.04335481 7.4783226 7.25770263 7.06032783 4 7 C3.67 6.01 3.34 5.02 3 4 C2.01 3.34 1.02 2.68 0 2 C0 1.34 0 0.68 0 0 Z " fill="#0F8DCC" transform="translate(311,215)"/>
<path d="M0 0 C1.51400391 0.01740234 1.51400391 0.01740234 3.05859375 0.03515625 C4.07050781 0.04417969 5.08242187 0.05320313 6.125 0.0625 C7.29869141 0.07990234 7.29869141 0.07990234 8.49609375 0.09765625 C9.05859375 2.03515625 9.05859375 2.03515625 9.49609375 4.09765625 C8.49609375 5.09765625 8.49609375 5.09765625 5.9921875 5.1953125 C4.47818359 5.17791016 4.47818359 5.17791016 2.93359375 5.16015625 C1.92167969 5.15113281 0.90976563 5.14210937 -0.1328125 5.1328125 C-0.91527344 5.12121094 -1.69773438 5.10960937 -2.50390625 5.09765625 C-3.06640625 3.16015625 -3.06640625 3.16015625 -3.50390625 1.09765625 C-2.50390625 0.09765625 -2.50390625 0.09765625 0 0 Z " fill="#477497" transform="translate(197.50390625,192.90234375)"/>
<path d="M0 0 C8.77578475 -0.76681614 8.77578475 -0.76681614 11.77734375 1.11328125 C13.125 2.5 13.125 2.5 15 5 C12.87506859 5.02693575 10.75004088 5.04636628 8.625 5.0625 C7.44164062 5.07410156 6.25828125 5.08570313 5.0390625 5.09765625 C2 5 2 5 0 4 C0 2.68 0 1.36 0 0 Z " fill="#085AA6" transform="translate(350,216)"/>
<path d="M0 0 C1.65322266 0.01740234 1.65322266 0.01740234 3.33984375 0.03515625 C4.99693359 0.04869141 4.99693359 0.04869141 6.6875 0.0625 C7.54214844 0.07410156 8.39679688 0.08570313 9.27734375 0.09765625 C8.94734375 1.74765625 8.61734375 3.39765625 8.27734375 5.09765625 C4.64734375 5.09765625 1.01734375 5.09765625 -2.72265625 5.09765625 C-3.05265625 3.77765625 -3.38265625 2.45765625 -3.72265625 1.09765625 C-2.72265625 0.09765625 -2.72265625 0.09765625 0 0 Z " fill="#447998" transform="translate(246.72265625,192.90234375)"/>
<path d="M0 0 C2.475 0.495 2.475 0.495 5 1 C5 4.3 5 7.6 5 11 C3.35 11.33 1.7 11.66 0 12 C0 8.04 0 4.08 0 0 Z " fill="#495F8D" transform="translate(223,214)"/>
<path d="M0 0 C2.31 0.33 4.62 0.66 7 1 C6.01 1.495 6.01 1.495 5 2 C5.350625 2.94875 5.70125 3.8975 6.0625 4.875 C7 8 7 8 6 10 C4.54077307 9.88590407 3.08259402 9.75834456 1.625 9.625 C0.81289063 9.55539063 0.00078125 9.48578125 -0.8359375 9.4140625 C-3 9 -3 9 -5 7 C-3.35 7 -1.7 7 0 7 C0 4.69 0 2.38 0 0 Z " fill="#1B72B0" transform="translate(290,213)"/>
<path d="M0 0 C1.65 0 3.3 0 5 0 C6.28317892 3.84953676 6.06643637 6.94738135 6 11 C4.35 11.33 2.7 11.66 1 12 C0.67 8.04 0.34 4.08 0 0 Z " fill="#458FB4" transform="translate(222,165)"/>
<path d="M0 0 C4.29 0 8.58 0 13 0 C12.01 0.495 12.01 0.495 11 1 C11 1.66 11 2.32 11 3 C10.01 3.495 10.01 3.495 9 4 C9 4.99 9 5.98 9 7 C6 9 6 9 3 9 C2.375 7.125 2.375 7.125 2 5 C2.66 4.34 3.32 3.68 4 3 C2.68 2.67 1.36 2.34 0 2 C0 1.34 0 0.68 0 0 Z " fill="#0C58A6" transform="translate(352,185)"/>
<path d="M0 0 C0.99 0.33 1.98 0.66 3 1 C3 2.65 3 4.3 3 6 C1.02 6.33 -0.96 6.66 -3 7 C-3.33 7.99 -3.66 8.98 -4 10 C-5.32 9.67 -6.64 9.34 -8 9 C-6.99023354 5.36484074 -6.05356282 4.04330611 -3.0625 1.625 C-2.051875 1.08875 -1.04125 0.5525 0 0 Z " fill="#617E8A" transform="translate(202,205)"/>
<path d="M0 0 C0.33 0 0.66 0 1 0 C2.19287411 3.87684087 3 6.91621923 3 11 C3.66 11 4.32 11 5 11 C4.67 11.66 4.34 12.32 4 13 C3.34 12.67 2.68 12.34 2 12 C2 12.66 2 13.32 2 14 C1.01 14.33 0.02 14.66 -1 15 C-1.07347656 14.04287109 -1.07347656 14.04287109 -1.1484375 13.06640625 C-1.22320312 12.24011719 -1.29796875 11.41382813 -1.375 10.5625 C-1.44460938 9.73878906 -1.51421875 8.91507813 -1.5859375 8.06640625 C-1.72257812 7.38449219 -1.85921875 6.70257813 -2 6 C-2.66 5.67 -3.32 5.34 -4 5 C-3.34 4.01 -2.68 3.02 -2 2 C-1.34 2 -0.68 2 0 2 C0 1.34 0 0.68 0 0 Z " fill="#125F9A" transform="translate(329,206)"/>
<path d="M0 0 C1.32 0 2.64 0 4 0 C4.04241723 2.33294775 4.04092937 4.66702567 4 7 C2.12175109 8.87824891 -1.03935276 8.39102397 -3.5625 8.5625 C-4.76003906 8.64628906 -5.95757812 8.73007813 -7.19140625 8.81640625 C-8.11824219 8.87699219 -9.04507812 8.93757812 -10 9 C-9.67 8.01 -9.34 7.02 -9 6 C-8.67 6.66 -8.34 7.32 -8 8 C-7.01 7.34 -6.02 6.68 -5 6 C-2.3125 5.875 -2.3125 5.875 0 6 C0 4.02 0 2.04 0 0 Z " fill="#112E76" transform="translate(378,185)"/>
<path d="M0 0 C1.65 0.33 3.3 0.66 5 1 C4.67 2.65 4.34 4.3 4 6 C3.34 6 2.68 6 2 6 C1.67 7.32 1.34 8.64 1 10 C0.01 9.67 -0.98 9.34 -2 9 C-2 6.69 -2 4.38 -2 2 C-1.34 2 -0.68 2 0 2 C0 1.34 0 0.68 0 0 Z " fill="#8D8386" transform="translate(401,230)"/>
<path d="M0 0 C3.375 -0.125 3.375 -0.125 7 0 C9 2 9 2 9.125 4.625 C9.08375 5.40875 9.0425 6.1925 9 7 C7.33333333 7 5.66666667 7 4 7 C3.67 6.34 3.34 5.68 3 5 C2.01 5 1.02 5 0 5 C0 3.35 0 1.7 0 0 Z " fill="#7C7878" transform="translate(283,232)"/>
<path d="M0 0 C0 1.98 0 3.96 0 6 C-2.64 6.66 -5.28 7.32 -8 8 C-8.36075949 3.55063291 -8.36075949 3.55063291 -6.8125 1.1875 C-4.44017475 -0.36678206 -2.77958655 -0.22537188 0 0 Z " fill="#213C95" transform="translate(378,185)"/>
<path d="M0 0 C1.32 0 2.64 0 4 0 C4 3.63 4 7.26 4 11 C3.34 10.67 2.68 10.34 2 10 C1.34 10.66 0.68 11.32 0 12 C-0.19401633 10.18818595 -0.38004375 8.37551468 -0.5625 6.5625 C-0.66691406 5.55316406 -0.77132813 4.54382813 -0.87890625 3.50390625 C-0.91886719 2.67761719 -0.95882813 1.85132813 -1 1 C-0.67 0.67 -0.34 0.34 0 0 Z " fill="#06A1E3" transform="translate(384,151)"/>
<path d="M0 0 C0.33 0 0.66 0 1 0 C1 9.57 1 19.14 1 29 C4.465 28.505 4.465 28.505 8 28 C8.33 28.99 8.66 29.98 9 31 C2.84765625 31.09765625 2.84765625 31.09765625 1 31 C0 30 0 30 -0.11352539 27.13256836 C-0.10828857 25.88096924 -0.10305176 24.62937012 -0.09765625 23.33984375 C-0.0962413 22.67537735 -0.09482635 22.01091095 -0.09336853 21.3263092 C-0.08775518 19.19666101 -0.07520054 17.06711661 -0.0625 14.9375 C-0.05748671 13.49674631 -0.05292351 12.05599097 -0.04882812 10.61523438 C-0.03778145 7.07678898 -0.02050792 3.53840461 0 0 Z " fill="#385280" transform="translate(381,192)"/>
<path d="M0 0 C2.375 0.625 2.375 0.625 5 2 C6.375 5 6.375 5 7 8 C6.67 8.66 6.34 9.32 6 10 C4.68 10 3.36 10 2 10 C-1.125 3.375 -1.125 3.375 0 0 Z " fill="#0C96DF" transform="translate(395,202)"/>
<path d="M0 0 C1.32 0.33 2.64 0.66 4 1 C4 7.27 4 13.54 4 20 C3.34 20.33 2.68 20.66 2 21 C2 15.06 2 9.12 2 3 C1.34 3 0.68 3 0 3 C0 2.01 0 1.02 0 0 Z " fill="#2A8CB5" transform="translate(283,148)"/>
<path d="M0 0 C3.72450216 2.10515339 5.6795921 3.24267224 7.375 7.25 C7.684375 8.61125 7.684375 8.61125 8 10 C7.34 10.66 6.68 11.32 6 12 C3.5625 11.0625 3.5625 11.0625 1 9 C0.2475065 6.01122299 0.07090135 3.07454047 0 0 Z " fill="#0972B9" transform="translate(400,204)"/>
<path d="M0 0 C17.07744875 -0.738041 17.07744875 -0.738041 23 4 C22.01 4.33 21.02 4.66 20 5 C19.34 4.67 18.68 4.34 18 4 C18 3.34 18 2.68 18 2 C13.05 2 8.1 2 3 2 C2.67 2.66 2.34 3.32 2 4 C2 3.34 2 2.68 2 2 C1.34 2 0.68 2 0 2 C0 1.34 0 0.68 0 0 Z " fill="#303974" transform="translate(390,183)"/>
<path d="M0 0 C1.98 0 3.96 0 6 0 C6 1.32 6 2.64 6 4 C6.33 4.99 6.66 5.98 7 7 C7 9 7 11 7 13 C6.01 12.67 5.02 12.34 4 12 C3.81824219 10.95199219 3.81824219 10.95199219 3.6328125 9.8828125 C3.46523438 8.97273437 3.29765625 8.06265625 3.125 7.125 C2.96257812 6.22007812 2.80015625 5.31515625 2.6328125 4.3828125 C2.16955297 1.83494012 2.16955297 1.83494012 0 0 Z " fill="#A6A2A3" transform="translate(382,227)"/>
<path d="M0 0 C3.63 0 7.26 0 11 0 C11.125 2.875 11.125 2.875 11 6 C9 8 9 8 5.5234375 8.1953125 C4.14049032 8.18201493 2.75761346 8.15816232 1.375 8.125 C0.66859375 8.11597656 -0.0378125 8.10695312 -0.765625 8.09765625 C-2.51056098 8.07407603 -4.25532295 8.03820461 -6 8 C-6 7.67 -6 7.34 -6 7 C-1.38 6.67 3.24 6.34 8 6 C8 5.01 8 4.02 8 3 C5.36 2.34 2.72 1.68 0 1 C0 0.67 0 0.34 0 0 Z " fill="#2B568B" transform="translate(358,206)"/>
<path d="M0 0 C1.32 0 2.64 0 4 0 C4 2.64 4 5.28 4 8 C2.33388095 8.042721 0.66617115 8.04063832 -1 8 C-2 7 -2 7 -2.1875 4.5625 C-2 2 -2 2 0 0 Z " fill="#1896D4" transform="translate(272,168)"/>
<path d="M0 0 C0 1.32 0 2.64 0 4 C-1.98 4 -3.96 4 -6 4 C-6.12375 4.639375 -6.2475 5.27875 -6.375 5.9375 C-6.58125 6.618125 -6.7875 7.29875 -7 8 C-7.99 8.495 -7.99 8.495 -9 9 C-9.25 6.1875 -9.25 6.1875 -9 3 C-6.24653799 -0.05940224 -4.00406942 -0.33367245 0 0 Z " fill="#737375" transform="translate(370,227)"/>
<path d="M0 0 C1.258125 -0.020625 2.51625 -0.04125 3.8125 -0.0625 C4.52019531 -0.07410156 5.22789062 -0.08570313 5.95703125 -0.09765625 C8 0 8 0 11 1 C12.1875 4.5625 12.1875 4.5625 13 8 C13.66 8 14.32 8 15 8 C15 9.65 15 11.3 15 13 C14.34 13 13.68 13 13 13 C13 13.66 13 14.32 13 15 C12.34 14.67 11.68 14.34 11 14 C10.7265625 12.0390625 10.7265625 12.0390625 10.625 9.625 C10.33108779 5.97650868 10.33108779 5.97650868 8.3125 3 C5.5531418 1.80676402 2.97952067 1.33858189 0 1 C0 0.67 0 0.34 0 0 Z " fill="#247DAC" transform="translate(316,193)"/>
<path d="M0 0 C3.6875 0.3125 3.6875 0.3125 6.125 2.3125 C6.8984375 3.3025 6.8984375 3.3025 7.6875 4.3125 C4.3875 4.3125 1.0875 4.3125 -2.3125 4.3125 C-2.6425 5.6325 -2.9725 6.9525 -3.3125 8.3125 C-3.6425 8.3125 -3.9725 8.3125 -4.3125 8.3125 C-4.35491723 5.97955225 -4.35342937 3.64547433 -4.3125 1.3125 C-3.3125 0.3125 -3.3125 0.3125 0 0 Z " fill="#2C4B86" transform="translate(211.3125,184.6875)"/>
<path d="M0 0 C1.98 0 3.96 0 6 0 C6.33 1.32 6.66 2.64 7 4 C6.11957031 3.97679687 5.23914063 3.95359375 4.33203125 3.9296875 C3.17058594 3.91164062 2.00914062 3.89359375 0.8125 3.875 C-0.33605469 3.85179687 -1.48460937 3.82859375 -2.66796875 3.8046875 C-5.91740372 3.99515848 -8.08660521 4.60639873 -11 6 C-10.4375 4.0625 -10.4375 4.0625 -9 2 C-2.85365854 0.57317073 -2.85365854 0.57317073 0 2 C0 1.34 0 0.68 0 0 Z " fill="#148DC8" transform="translate(322,190)"/>
<path d="M0 0 C0.99 0 1.98 0 3 0 C3.125 5.75 3.125 5.75 2 8 C2.165 8.53625 2.33 9.0725 2.5 9.625 C3.25604225 13.21620069 2.54290527 16.38063155 2 20 C1.34 20 0.68 20 0 20 C0 13.33333333 0 6.66666667 0 0 Z " fill="#0EA7DE" transform="translate(280,148)"/>
<path d="M0 0 C-0.33 0.99 -0.66 1.98 -1 3 C-3.0625 3.6875 -3.0625 3.6875 -5 4 C-5 4.66 -5 5.32 -5 6 C-6.32 6 -7.64 6 -9 6 C-11.22743787 7.41977909 -11.22743787 7.41977909 -13 9 C-12.07933074 4.97207198 -10.40632779 3.31536059 -7.0625 1.125 C-3.42940794 -1.14313598 -3.42940794 -1.14313598 0 0 Z " fill="#43657D" transform="translate(261,179)"/>
<path d="M0 0 C0.33 1.65 0.66 3.3 1 5 C-1.1875 5.8125 -1.1875 5.8125 -4 6 C-6.8125 3.5625 -6.8125 3.5625 -9 1 C-3.375 -1.125 -3.375 -1.125 0 0 Z " fill="#104B9D" transform="translate(369,215)"/>
<path d="M0 0 C0.33 0.66 0.66 1.32 1 2 C1.66 2 2.32 2 3 2 C3 3.65 3 5.3 3 7 C2.01 7.495 2.01 7.495 1 8 C1 7.34 1 6.68 1 6 C0.01 5.67 -0.98 5.34 -2 5 C-2.99 6.32 -3.98 7.64 -5 9 C-5 6.36 -5 3.72 -5 1 C-3.68 1.33 -2.36 1.66 -1 2 C-0.67 1.34 -0.34 0.68 0 0 Z " fill="#0F49A9" transform="translate(388,202)"/>
<path d="M0 0 C0.66 0.66 1.32 1.32 2 2 C1.68134222 5.29279709 0.45484649 6.86535088 -2 9 C-3.5 7.75 -3.5 7.75 -5 6 C-5 4.68 -5 3.36 -5 2 C-3.35 1.34 -1.7 0.68 0 0 Z " fill="#0553A1" transform="translate(255,171)"/>
<path d="M0 0 C2.0625 0.4375 2.0625 0.4375 4 1 C4 1.99 4 2.98 4 4 C3.01 4 2.02 4 1 4 C0.92572162 7.34252724 0.93453047 9.8035914 2 13 C1.01 13 0.02 13 -1 13 C-2.01936725 9.94189824 -2.00186825 8.50198793 -1.625 5.375 C-1.53476562 4.57835937 -1.44453125 3.78171875 -1.3515625 2.9609375 C-1 1 -1 1 0 0 Z " fill="#5A5859" transform="translate(281,227)"/>
<path d="M0 0 C2.4375 0.75 2.4375 0.75 5 2 C5.8125 4.125 5.8125 4.125 6 6 C2.37673261 7.2077558 1.35853631 6.54311128 -2 5 C-1.34 3.35 -0.68 1.7 0 0 Z " fill="#4D83A0" transform="translate(199,178)"/>
<path d="M0 0 C1.65 0.33 3.3 0.66 5 1 C4.6875 3.375 4.6875 3.375 4 6 C3.01 6.66 2.02 7.32 1 8 C0.01 7.01 -0.98 6.02 -2 5 C-1.34 3.35 -0.68 1.7 0 0 Z " fill="#495E80" transform="translate(210,215)"/>
<path d="M0 0 C2 3 2 3 2 7 C0.1875 8.8125 0.1875 8.8125 -2 10 C-2.99 9.67 -3.98 9.34 -5 9 C-4.34 7.02 -3.68 5.04 -3 3 C-2.34 3 -1.68 3 -1 3 C-0.67 2.01 -0.34 1.02 0 0 Z " fill="#5E5B5A" transform="translate(346,230)"/>
<path d="M0 0 C0.99 0.33 1.98 0.66 3 1 C4.1875 3.5625 4.1875 3.5625 5 6 C4.01 6.99 3.02 7.98 2 9 C0.68 7.02 -0.64 5.04 -2 3 C-1.34 2.01 -0.68 1.02 0 0 Z " fill="#445984" transform="translate(237,215)"/>
<path d="M0 0 C0.99 0 1.98 0 3 0 C3 2.31 3 4.62 3 7 C3.99 7.33 4.98 7.66 6 8 C5.01 8.33 4.02 8.66 3 9 C1.79117904 11.00016466 1.79117904 11.00016466 1 13 C-0.10228696 8.59085217 -0.07654536 4.51617599 0 0 Z " fill="#041E5A" transform="translate(389,185)"/>
<path d="M0 0 C2.0625 0.4375 2.0625 0.4375 4 1 C3.6875 3.375 3.6875 3.375 3 6 C2.01 6.66 1.02 7.32 0 8 C-0.66 7.67 -1.32 7.34 -2 7 C-1.125 1.125 -1.125 1.125 0 0 Z " fill="#4588A4" transform="translate(238,168)"/>
<path d="M0 0 C0 0.99 0 1.98 0 3 C-1.86328125 4.60546875 -1.86328125 4.60546875 -4.3125 6.1875 C-5.11300781 6.71730469 -5.91351563 7.24710938 -6.73828125 7.79296875 C-9 9 -9 9 -12 9 C-10.87895467 7.68412059 -9.75303035 6.37239647 -8.625 5.0625 C-7.99851563 4.33160156 -7.37203125 3.60070312 -6.7265625 2.84765625 C-4.34975679 0.3041515 -3.5259138 0 0 0 Z " fill="#28669A" transform="translate(252,170)"/>
<path d="M0 0 C1.65 0 3.3 0 5 0 C5.66 1.65 6.32 3.3 7 5 C5.02 5.99 5.02 5.99 3 7 C0 2.25 0 2.25 0 0 Z " fill="#478BAF" transform="translate(208,169)"/>
<path d="M0 0 C0.495 0.37125 0.99 0.7425 1.5 1.125 C1.17 1.785 0.84 2.445 0.5 3.125 C-2.33906038 3.72028685 -4.64434325 4.19381101 -7.5 4.125 C-9.5 2.6875 -9.5 2.6875 -10.5 1.125 C-3.11538462 -1.09038462 -3.11538462 -1.09038462 0 0 Z " fill="#4A545F" transform="translate(221.5,162.875)"/>
<path d="M0 0 C0.66 0.495 1.32 0.99 2 1.5 C7.17542085 4.08771042 12.47614346 3.38096413 18 2 C18 2.66 18 3.32 18 4 C15.16612485 5.41693757 12.71970627 5.1699013 9.5625 5.1875 C8.40878906 5.20167969 7.25507813 5.21585938 6.06640625 5.23046875 C3 5 3 5 0 3 C0 2.01 0 1.02 0 0 Z " fill="#2888B7" transform="translate(309,210)"/>
<path d="M0 0 C2.97 1.98 2.97 1.98 6 4 C5.67 4.66 5.34 5.32 5 6 C3.02 6 1.04 6 -1 6 C-1.625 4.125 -1.625 4.125 -2 2 C-1.34 1.34 -0.68 0.68 0 0 Z " fill="#3F6794" transform="translate(247,205)"/>
<path d="M0 0 C3.92775068 0.89267061 5.70652528 1.66018716 8.375 4.75 C10.09945894 8.19891788 10.36139933 10.205307 10 14 C8.90278589 12.35417883 7.82090094 10.69618179 6.81640625 8.9921875 C6.19572266 7.94417969 6.19572266 7.94417969 5.5625 6.875 C5.15128906 6.17117187 4.74007813 5.46734375 4.31640625 4.7421875 C3.02752442 2.69458331 3.02752442 2.69458331 0 2 C0 1.34 0 0.68 0 0 Z " fill="#364C7C" transform="translate(367,199)"/>
<path d="M0 0 C2.475 0.99 2.475 0.99 5 2 C4.67 3.32 4.34 4.64 4 6 C4.99 6.33 5.98 6.66 7 7 C4.69 7 2.38 7 0 7 C0 4.69 0 2.38 0 0 Z " fill="#0A3B82" transform="translate(286,169)"/>
<path d="M0 0 C1.98 0 3.96 0 6 0 C6.33 1.65 6.66 3.3 7 5 C5.02 5.99 5.02 5.99 3 7 C2.67 5.68 2.34 4.36 2 3 C1.34 3 0.68 3 0 3 C0 2.01 0 1.02 0 0 Z " fill="#706E6F" transform="translate(324,231)"/>
<path d="M0 0 C2.31 0 4.62 0 7 0 C7 0.99 7 1.98 7 3 C7.33 3.99 7.66 4.98 8 6 C6.68 6.33 5.36 6.66 4 7 C3.67 6.01 3.34 5.02 3 4 C2.01 3.34 1.02 2.68 0 2 C0 1.34 0 0.68 0 0 Z " fill="#0D95D9" transform="translate(311,215)"/>
<path d="M0 0 C0.66 0.33 1.32 0.66 2 1 C2 4.63 2 8.26 2 12 C0.68 12 -0.64 12 -2 12 C-2 10 -2 10 0 8 C-0.30027117 6.32706064 -0.63557767 4.66014616 -1 3 C-0.67 2.01 -0.34 1.02 0 0 Z " fill="#5F5C62" transform="translate(330,227)"/>
<path d="M0 0 C2.97 0 5.94 0 9 0 C9 1.32 9 2.64 9 4 C7.02 4 5.04 4 3 4 C2.67 3.01 2.34 2.02 2 1 C1.34 0.67 0.68 0.34 0 0 Z " fill="#0368B2" transform="translate(341,216)"/>
<path d="M0 0 C1.5625 1.1875 1.5625 1.1875 3 3 C2.6875 5.6875 2.6875 5.6875 2 8 C0.68 7.67 -0.64 7.34 -2 7 C-2 6.34 -2 5.68 -2 5 C-2.66 4.67 -3.32 4.34 -4 4 C-3.34 4 -2.68 4 -2 4 C-2 3.01 -2 2.02 -2 1 C-1.34 0.67 -0.68 0.34 0 0 Z " fill="#0DA9EA" transform="translate(302,197)"/>
<path d="M0 0 C0.33 1.32 0.66 2.64 1 4 C0.01 4.33 -0.98 4.66 -2 5 C-2.33 6.65 -2.66 8.3 -3 10 C-4.5625 8.1875 -4.5625 8.1875 -6 6 C-4.75453595 2.26360784 -3.36595047 1.81243487 0 0 Z " fill="#069FE3" transform="translate(309,192)"/>
<path d="M0 0 C0.66 0.33 1.32 0.66 2 1 C2.04254356 2.99954746 2.04080783 5.00041636 2 7 C1 8 1 8 -1.9375 8.25 C-2.948125 8.1675 -3.95875 8.085 -5 8 C-5.66 7.01 -6.32 6.02 -7 5 C-4.69 5.33 -2.38 5.66 0 6 C0 4.02 0 2.04 0 0 Z " fill="#716D6D" transform="translate(369,232)"/>
<path d="M0 0 C2.97 0 5.94 0 9 0 C9 0.99 9 1.98 9 3 C6.03 3 3.06 3 0 3 C0 2.01 0 1.02 0 0 Z " fill="#2D79AF" transform="translate(196,194)"/>
<path d="M0 0 C0.75732422 0.00966797 1.51464844 0.01933594 2.29492188 0.02929688 C3.08060547 0.05443359 3.86628906 0.07957031 4.67578125 0.10546875 C5.87170898 0.12577148 5.87170898 0.12577148 7.09179688 0.14648438 C9.05758092 0.18179786 11.02301707 0.23560428 12.98828125 0.29296875 C12.98828125 0.62296875 12.98828125 0.95296875 12.98828125 1.29296875 C11.98925781 1.35355469 10.99023438 1.41414062 9.9609375 1.4765625 C8.67058594 1.56035156 7.38023437 1.64414063 6.05078125 1.73046875 C4.76300781 1.81167969 3.47523438 1.89289063 2.1484375 1.9765625 C-0.87195832 1.94216063 -0.87195832 1.94216063 -2.01171875 3.29296875 C-3.6778899 3.33360707 -5.3455997 3.33568975 -7.01171875 3.29296875 C-4.74810376 0.60821609 -3.50571314 -0.07907624 0 0 Z " fill="#214B73" transform="translate(360.01171875,182.70703125)"/>
<path d="M0 0 C2.31 0 4.62 0 7 0 C7.33 1.98 7.66 3.96 8 6 C6.125 5.75 6.125 5.75 4 5 C2.875 3 2.875 3 2 1 C1.34 0.67 0.68 0.34 0 0 Z " fill="#082372" transform="translate(397,200)"/>
<path d="M0 0 C0.66 0.33 1.32 0.66 2 1 C-0.10148204 4.98175544 -2.36905358 7.35039045 -6 10 C-5.58578031 5.16743695 -3.53586014 3.17320782 0 0 Z " fill="#2586BD" transform="translate(245,187)"/>
<path d="M0 0 C0.99 0.33 1.98 0.66 3 1 C2.1875 3.4375 2.1875 3.4375 1 6 C0.01 6.33 -0.98 6.66 -2 7 C-2.66 6.34 -3.32 5.68 -4 5 C-2.68 3.35 -1.36 1.7 0 0 Z " fill="#0562B5" transform="translate(216,190)"/>
<path d="M0 0 C0.99 1.32 1.98 2.64 3 4 C1.8125 5.5625 1.8125 5.5625 0 7 C-2.6875 6.6875 -2.6875 6.6875 -5 6 C-3.35 4.02 -1.7 2.04 0 0 Z " fill="#0A82C6" transform="translate(239,182)"/>
<path d="M0 0 C1.65 1.32 3.3 2.64 5 4 C4.34 4 3.68 4 3 4 C2.67 5.65 2.34 7.3 2 9 C1.67 8.01 1.34 7.02 1 6 C1.33 5.34 1.66 4.68 2 4 C0.35 4 -1.3 4 -3 4 C-3 3.34 -3 2.68 -3 2 C-2.01 1.34 -1.02 0.68 0 0 Z " fill="#6E7789" transform="translate(202,217)"/>
<path d="M0 0 C0.99 0.33 1.98 0.66 3 1 C2.67 1.99 2.34 2.98 2 4 C2.33 4.99 2.66 5.98 3 7 C0.03 6.505 0.03 6.505 -3 6 C-1.125 1.125 -1.125 1.125 0 0 Z " fill="#0497DF" transform="translate(233,190)"/>
<path d="M0 0 C0.99 0.33 1.98 0.66 3 1 C3.33 2.65 3.66 4.3 4 6 C1.36 5.67 -1.28 5.34 -4 5 C-4 4.34 -4 3.68 -4 3 C-2.1875 1.3125 -2.1875 1.3125 0 0 Z " fill="#17459B" transform="translate(256,167)"/>
<path d="M0 0 C0.99 0.33 1.98 0.66 3 1 C2.360625 1.9075 1.72125 2.815 1.0625 3.75 C-0.61428953 6.39221381 -1.53689998 7.9898499 -2 11 C-2.66 10.34 -3.32 9.68 -4 9 C-3.52418802 7.68628013 -3.04424851 6.37405454 -2.5625 5.0625 C-2.29566406 4.33160156 -2.02882813 3.60070312 -1.75390625 2.84765625 C-1 1 -1 1 0 0 Z " fill="#57575B" transform="translate(306,227)"/>
<path d="M0 0 C0.33 0 0.66 0 1 0 C1 2.97 1 5.94 1 9 C-0.65 7.68 -2.3 6.36 -4 5 C-3.34 4.01 -2.68 3.02 -2 2 C-1.34 2 -0.68 2 0 2 C0 1.34 0 0.68 0 0 Z " fill="#09407E" transform="translate(329,206)"/>
<path d="M0 0 C0.33 0.99 0.66 1.98 1 3 C-2.63 3.33 -6.26 3.66 -10 4 C-9.67 3.01 -9.34 2.02 -9 1 C-4.545 0.505 -4.545 0.505 0 0 Z " fill="#324479" transform="translate(405,197)"/>
<path d="M0 0 C0 3 0 3 -1 5.3125 C-2.1359624 8.36539895 -2.15029319 10.76869645 -2 14 C-2.66 14 -3.32 14 -4 14 C-4.05447047 12.58376784 -4.09300508 11.16691809 -4.125 9.75 C-4.14820313 8.96109375 -4.17140625 8.1721875 -4.1953125 7.359375 C-3.97962391 4.75385683 -3.3921178 3.20013023 -2 1 C-1.34 0.67 -0.68 0.34 0 0 Z " fill="#23608B" transform="translate(351,186)"/>
<path d="M0 0 C0.33 1.32 0.66 2.64 1 4 C1.66 4 2.32 4 3 4 C3.33 3.34 3.66 2.68 4 2 C4 4.31 4 6.62 4 9 C3.01 9 2.02 9 1 9 C-0.4783226 6.04335481 -0.06032783 3.25770263 0 0 Z " fill="#0766B3" transform="translate(383,187)"/>
<path d="M0 0 C2.0625 1.6875 2.0625 1.6875 4 4 C3.75 6.75 3.75 6.75 3 9 C2.34 8.67 1.68 8.34 1 8 C1 6.68 1 5.36 1 4 C0.34 4 -0.32 4 -1 4 C-0.67 2.68 -0.34 1.36 0 0 Z " fill="#012B78" transform="translate(299,210)"/>
<path d="M0 0 C0.99 0.33 1.98 0.66 3 1 C3 2.65 3 4.3 3 6 C1.35 5.67 -0.3 5.34 -2 5 C-1.34 3.35 -0.68 1.7 0 0 Z " fill="#325F9A" transform="translate(202,205)"/>
<path d="M0 0 C1.98 0 3.96 0 6 0 C5.67 1.32 5.34 2.64 5 4 C3.35 4 1.7 4 0 4 C-0.33 3.34 -0.66 2.68 -1 2 C-0.67 1.34 -0.34 0.68 0 0 Z " fill="#1D368C" transform="translate(405,204)"/>
<path d="M0 0 C0.99 0.33 1.98 0.66 3 1 C1.25 3 1.25 3 -1 5 C-2.32 5 -3.64 5 -5 5 C-4.67 3.68 -4.34 2.36 -4 1 C-3.01 1 -2.02 1 -1 1 C-0.67 0.67 -0.34 0.34 0 0 Z " fill="#384A55" transform="translate(248,167)"/>
<path d="M0 0 C2.31 0.33 4.62 0.66 7 1 C7 1.99 7 2.98 7 4 C4.03 3.67 1.06 3.34 -2 3 C-1.34 2.67 -0.68 2.34 0 2 C0 1.34 0 0.68 0 0 Z " fill="#555050" transform="translate(230,157)"/>
<path d="M0 0 C2.31 0 4.62 0 7 0 C7.33 0.99 7.66 1.98 8 3 C5.69 3 3.38 3 1 3 C0.67 2.01 0.34 1.02 0 0 Z " fill="#2779AB" transform="translate(245,194)"/>
<path d="M0 0 C1.0326802 2.78823655 1.04509293 3.8677274 0.0625 6.75 C-0.288125 7.4925 -0.63875 8.235 -1 9 C-1.99 8.67 -2.98 8.34 -4 8 C-3.40138258 5.64828869 -2.73075648 3.3140622 -2 1 C-1.34 0.67 -0.68 0.34 0 0 Z " fill="#59646F" transform="translate(196,181)"/>
<path d="M0 0 C0.66 0 1.32 0 2 0 C2.125 5.75 2.125 5.75 1 8 C0.34 8 -0.32 8 -1 8 C-1.33 6.02 -1.66 4.04 -2 2 C-1.34 2 -0.68 2 0 2 C0 1.34 0 0.68 0 0 Z " fill="#0370BB" transform="translate(385,183)"/>
<path d="M0 0 C0.66 0.33 1.32 0.66 2 1 C2 1.99 2 2.98 2 4 C-1 6.1875 -1 6.1875 -4 8 C-3.34 6.68 -2.68 5.36 -2 4 C-2.99 3.34 -3.98 2.68 -5 2 C-2.625 0.9375 -2.625 0.9375 0 0 Z " fill="#6C7383" transform="translate(253,209)"/>
<path d="M0 0 C0.66 0 1.32 0 2 0 C2.73080266 1.97746603 3.39421747 3.98072489 4 6 C3.67 6.66 3.34 7.32 3 8 C2.01 7.67 1.02 7.34 0 7 C0 4.69 0 2.38 0 0 Z " fill="#0788D2" transform="translate(398,204)"/>
<path d="M0 0 C0.33 0.66 0.66 1.32 1 2 C3.52733235 2.65555119 3.52733235 2.65555119 6 3 C6 3.33 6 3.66 6 4 C3.03 4 0.06 4 -3 4 C-2.67 3.01 -2.34 2.02 -2 1 C-1.34 0.67 -0.68 0.34 0 0 Z " fill="#16A0E3" transform="translate(223,199)"/>
<path d="M0 0 C1.66666667 0 3.33333333 0 5 0 C5 1.65 5 3.3 5 5 C2 5 2 5 0 4 C0 2.68 0 1.36 0 0 Z " fill="#0558A2" transform="translate(383,199)"/>
<path d="M0 0 C1.67542976 0.28604898 3.34385343 0.61781233 5 1 C5 3.64 5 6.28 5 9 C4.01 9.495 4.01 9.495 3 10 C3 7.69 3 5.38 3 3 C1.68 2.34 0.36 1.68 -1 1 C-0.67 0.67 -0.34 0.34 0 0 Z " fill="#3F5685" transform="translate(261,162)"/>
<path d="M0 0 C0 0.99 0 1.98 0 3 C-1.32 3 -2.64 3 -4 3 C-4 3.66 -4 4.32 -4 5 C-4.66 5 -5.32 5 -6 5 C-6 3.68 -6 2.36 -6 1 C-4 0 -4 0 0 0 Z " fill="#7B7F84" transform="translate(405,227)"/>
<path d="M0 0 C3 1 3 1 6 3 C5.01 3.33 4.02 3.66 3 4 C2.67 4.66 2.34 5.32 2 6 C2 5.34 2 4.68 2 4 C1.34 4 0.68 4 0 4 C0 3.34 0 2.68 0 2 C-0.66 1.67 -1.32 1.34 -2 1 C-1.34 0.67 -0.68 0.34 0 0 Z " fill="#233978" transform="translate(258,162)"/>
<path d="M0 0 C1.32 0.33 2.64 0.66 4 1 C3.67 2.98 3.34 4.96 3 7 C2.01 6.34 1.02 5.68 0 5 C-0.1875 2.375 -0.1875 2.375 0 0 Z " fill="#79787C" transform="translate(381,228)"/>
<path d="M0 0 C2.99332739 0.9977758 3.94766315 1.7522025 6 4 C4.1875 4.6875 4.1875 4.6875 2 5 C0.25 3.5625 0.25 3.5625 -1 2 C-0.67 1.34 -0.34 0.68 0 0 Z " fill="#05A4E6" transform="translate(303,209)"/>
<path d="M0 0 C0.33 0 0.66 0 1 0 C1.125 3.375 1.125 3.375 1 7 C0.34 7.66 -0.32 8.32 -1 9 C-1.625 6.1875 -1.625 6.1875 -2 3 C-1.34 2.01 -0.68 1.02 0 0 Z " fill="#6A7880" transform="translate(257,191)"/>
<path d="M0 0 C0.33 0.66 0.66 1.32 1 2 C0.01 2.33 -0.98 2.66 -2 3 C-2 2.34 -2 1.68 -2 1 C-1.34 0.67 -0.68 0.34 0 0 Z M-4 3 C-3.34 3 -2.68 3 -2 3 C-1.67 3.99 -1.34 4.98 -1 6 C-1.99 6.66 -2.98 7.32 -4 8 C-4.99 7.67 -5.98 7.34 -7 7 C-5.625 5 -5.625 5 -4 3 Z " fill="#06539E" transform="translate(362,186)"/>
<path d="M0 0 C0 0.66 0 1.32 0 2 C-3.47325181 3.1577506 -6.36067448 3.06866652 -10 3 C-6.84916414 -0.15083586 -4.41812253 0 0 0 Z " fill="#2E8DB0" transform="translate(320,184)"/>
<path d="M0 0 C1.32 0.33 2.64 0.66 4 1 C3.67 2.65 3.34 4.3 3 6 C2.34 5.67 1.68 5.34 1 5 C0.375 2.4375 0.375 2.4375 0 0 Z " fill="#949190" transform="translate(365,231)"/>
<path d="M0 0 C1.32 0.33 2.64 0.66 4 1 C2 4 2 4 -0.125 4.6875 C-0.74375 4.790625 -1.3625 4.89375 -2 5 C-2 4.01 -2 3.02 -2 2 C-1.34 2 -0.68 2 0 2 C0 1.34 0 0.68 0 0 Z " fill="#909095" transform="translate(401,230)"/>
<path d="M0 0 C1.98 0 3.96 0 6 0 C6 1.32 6 2.64 6 4 C4.68 4 3.36 4 2 4 C2 3.34 2 2.68 2 2 C1.34 1.34 0.68 0.68 0 0 Z " fill="#94949A" transform="translate(382,227)"/>
<path d="M0 0 C3.25543229 0.34879632 4.01873107 1.02133261 6.25 3.5625 C6.8275 4.366875 7.405 5.17125 8 6 C4.74456771 5.65120368 3.98126893 4.97866739 1.75 2.4375 C1.1725 1.633125 0.595 0.82875 0 0 Z " fill="#003F85" transform="translate(225,196)"/>
<path d="M0 0 C0.99 0.495 0.99 0.495 2 1 C2 1.66 2 2.32 2 3 C3.32 3.33 4.64 3.66 6 4 C5.67 4.99 5.34 5.98 5 7 C3.0625 6.3125 3.0625 6.3125 1 5 C0.25 2.375 0.25 2.375 0 0 Z " fill="#217CB2" transform="translate(213,196)"/>
<path d="M0 0 C1.875 0.125 1.875 0.125 4 1 C5.25 4.0625 5.25 4.0625 6 7 C3.95880212 5.38405168 1.95927063 3.7143618 0 2 C0 1.34 0 0.68 0 0 Z " fill="#2F6A9C" transform="translate(208,193)"/>
<path d="M0 0 C-0.33 0.66 -0.66 1.32 -1 2 C-4.63 1.67 -8.26 1.34 -12 1 C-12 0.67 -12 0.34 -12 0 C-7.6835078 -0.76173392 -4.25566547 -1.16063604 0 0 Z " fill="#26306D" transform="translate(407,192)"/>
<path d="M0 0 C0.93423645 3.01031744 1.04449911 3.86650268 0 7 C-2.0625 8.1875 -2.0625 8.1875 -4 9 C-4 7.02 -4 5.04 -4 3 C-3.34 3.66 -2.68 4.32 -2 5 C-1.34 3.35 -0.68 1.7 0 0 Z " fill="#087DC2" transform="translate(387,174)"/>
<path d="M0 0 C0.625 1.875 0.625 1.875 1 4 C0.34 4.66 -0.32 5.32 -1 6 C-3.125 5.625 -3.125 5.625 -5 5 C-3.35 3.35 -1.7 1.7 0 0 Z " fill="#2D4C86" transform="translate(255,164)"/>
<path d="M0 0 C2 3 2 3 2 7 C-0.475 6.01 -0.475 6.01 -3 5 C-2 3 -2 3 0 0 Z " fill="#6D6E6E" transform="translate(346,230)"/>
<path d="M0 0 C1.03864166 3.11592499 1.09036928 4.0262656 0 7 C-0.99 7.495 -0.99 7.495 -2 8 C-2.125 5.125 -2.125 5.125 -2 2 C-1.34 1.34 -0.68 0.68 0 0 Z " fill="#676566" transform="translate(363,228)"/>
<path d="M0 0 C2 1.375 2 1.375 4 3 C4 3.66 4 4.32 4 5 C1.69 5 -0.62 5 -3 5 C-2.01 4.67 -1.02 4.34 0 4 C0 2.68 0 1.36 0 0 Z " fill="#0756A1" transform="translate(410,215)"/>
<path d="M0 0 C1.32 0 2.64 0 4 0 C3.67 1.65 3.34 3.3 3 5 C1.68 4.34 0.36 3.68 -1 3 C-0.67 2.01 -0.34 1.02 0 0 Z " fill="#154899" transform="translate(209,189)"/>
<path d="M0 0 C2.5 1.375 2.5 1.375 5 3 C5 3.66 5 4.32 5 5 C4.01 5.33 3.02 5.66 2 6 C0 3 0 3 0 0 Z " fill="#525355" transform="translate(239,159)"/>
</svg>
